<svg width="622" height="405" viewBox="0 0 622 405" fill="none" xmlns="http://www.w3.org/2000/svg">
<circle cx="491" cy="88" r="67" fill="#B11116" fill-opacity="0.58"/>
<circle cx="572" cy="143" r="50" fill="#B11116"/>
<circle cx="39" cy="81" r="39" fill="#B11116"/>
<circle cx="90.5" cy="256.5" r="23.5" fill="#B11116" fill-opacity="0.3"/>
<g filter="url(#filter0_b)">
<circle cx="135" cy="324" r="81" fill="#B11116" fill-opacity="0.8"/>
</g>
<circle cx="570" cy="351" r="27" fill="#B11116"/>
<circle cx="555.5" cy="324.5" r="14.5" fill="#B11116" fill-opacity="0.5"/>
<path d="M376 122.522C376 122.129 375.847 121.76 375.57 121.483L372.517 118.43C372.24 118.153 371.871 118 371.478 118C371.086 118 370.717 118.153 370.439 118.43L368.643 120.227C368.452 120.417 368.452 120.727 368.643 120.917C368.833 121.108 369.142 121.108 369.333 120.917L371.13 119.121C371.223 119.028 371.346 118.977 371.478 118.977C371.61 118.977 371.733 119.028 371.827 119.121L374.879 122.174C374.972 122.267 375.023 122.39 375.023 122.522C375.023 122.654 374.972 122.777 374.879 122.87L368.1 129.649L364.351 125.9L366.211 124.039C366.402 123.849 366.402 123.539 366.211 123.349C366.02 123.158 365.711 123.158 365.521 123.349L363.605 125.264C363.389 125.155 363.15 125.097 362.901 125.097C362.483 125.097 362.091 125.259 361.796 125.554L358.466 128.884C358.171 129.179 358.008 129.572 358.008 129.989C358.008 130.238 358.066 130.478 358.176 130.694L351.43 137.439C351.153 137.717 351 138.086 351 138.478C351 138.871 351.153 139.24 351.43 139.517L354.483 142.57C354.76 142.847 355.129 143 355.522 143C355.914 143 356.283 142.847 356.561 142.57L363.306 135.824C363.522 135.934 363.762 135.992 364.011 135.992C364.428 135.992 364.821 135.829 365.116 135.534L368.446 132.204C368.741 131.909 368.903 131.517 368.903 131.099C368.903 130.85 368.845 130.611 368.736 130.395L375.57 123.561C375.847 123.283 376 122.914 376 122.522ZM357.146 133.104L360.896 136.854L359.854 137.896L356.113 137.895L356.104 134.146L357.146 133.104ZM361.586 136.163L357.837 132.414L358.811 131.439L362.561 135.189L361.586 136.163ZM355.871 141.879C355.777 141.972 355.654 142.023 355.522 142.023C355.39 142.023 355.267 141.972 355.173 141.879L352.121 138.826C352.028 138.733 351.977 138.61 351.977 138.478C351.977 138.346 352.028 138.223 352.121 138.13L355.13 135.12L355.138 138.384C355.138 138.653 355.357 138.871 355.626 138.871L358.877 138.872L355.871 141.879ZM367.755 131.514L364.425 134.844C364.314 134.954 364.167 135.015 364.011 135.015C363.854 135.015 363.707 134.954 363.597 134.844C363.597 134.844 363.597 134.844 363.596 134.844C363.596 134.843 363.596 134.843 363.596 134.843L359.156 130.404C359.046 130.293 358.985 130.146 358.985 129.989C358.985 129.833 359.046 129.686 359.156 129.575L362.486 126.245C362.597 126.134 362.744 126.073 362.901 126.073C363.057 126.073 363.204 126.134 363.315 126.245L365.19 128.12L364.361 128.948L363.246 127.833C363.154 127.742 363.03 127.69 362.901 127.69C362.771 127.69 362.647 127.742 362.556 127.833L360.745 129.644C360.554 129.835 360.554 130.144 360.745 130.335L363.666 133.256C363.761 133.351 363.886 133.399 364.011 133.399C364.136 133.399 364.261 133.351 364.356 133.256L366.167 131.445C366.259 131.353 366.31 131.229 366.31 131.099C366.31 130.97 366.259 130.846 366.167 130.754L365.052 129.639L365.88 128.81L367.755 130.685L367.755 130.685C367.755 130.685 367.755 130.685 367.755 130.685C367.866 130.796 367.927 130.943 367.927 131.099C367.927 131.256 367.866 131.403 367.755 131.514ZM363.619 130.381C363.715 130.476 363.84 130.524 363.965 130.524C364.09 130.524 364.215 130.476 364.31 130.381L364.361 130.329L365.131 131.099L364.011 132.22L361.78 129.989L362.901 128.869L363.671 129.639L363.619 129.69C363.429 129.881 363.429 130.19 363.619 130.381Z" fill="black"/>
<path d="M368.125 127.449C368.527 127.449 368.928 127.297 369.234 126.991C369.845 126.38 369.845 125.385 369.234 124.774C368.938 124.478 368.544 124.315 368.125 124.315C367.707 124.315 367.313 124.478 367.017 124.774C366.406 125.385 366.406 126.38 367.017 126.991C367.323 127.297 367.724 127.449 368.125 127.449ZM367.707 125.465C367.819 125.353 367.967 125.292 368.125 125.292C368.283 125.292 368.432 125.353 368.543 125.465C368.774 125.695 368.774 126.07 368.543 126.301C368.313 126.531 367.938 126.531 367.707 126.301C367.477 126.07 367.477 125.695 367.707 125.465Z" fill="black"/>
<path d="M371.177 124.398C371.596 124.398 371.99 124.235 372.286 123.939C372.582 123.643 372.745 123.249 372.745 122.83C372.745 122.412 372.582 122.018 372.286 121.722C371.99 121.426 371.596 121.263 371.177 121.263C370.758 121.263 370.365 121.426 370.069 121.722C369.773 122.018 369.61 122.412 369.61 122.83C369.61 123.249 369.773 123.643 370.069 123.939C370.365 124.235 370.758 124.398 371.177 124.398ZM370.759 122.413C370.871 122.301 371.019 122.239 371.177 122.239C371.335 122.239 371.483 122.301 371.595 122.413C371.707 122.524 371.768 122.673 371.768 122.83C371.768 122.988 371.707 123.137 371.595 123.248C371.483 123.36 371.335 123.421 371.177 123.421C371.019 123.421 370.871 123.36 370.759 123.248C370.648 123.137 370.586 122.988 370.586 122.83C370.586 122.673 370.648 122.524 370.759 122.413Z" fill="black"/>
<path d="M367.427 122.621C367.555 122.621 367.681 122.569 367.772 122.478C367.863 122.387 367.915 122.261 367.915 122.133C367.915 122.004 367.863 121.878 367.772 121.787C367.681 121.696 367.555 121.644 367.427 121.644C367.298 121.644 367.172 121.696 367.082 121.787C366.991 121.878 366.939 122.004 366.939 122.133C366.939 122.261 366.991 122.387 367.082 122.478C367.172 122.569 367.298 122.621 367.427 122.621Z" fill="black"/>
<path d="M300.404 96.4756C300.402 96.4749 300.4 96.474 300.398 96.4733L292.209 93.4925L292.535 92.5974C293.074 91.1168 292.296 89.4697 290.802 88.9259L283.576 86.2958C282.082 85.752 280.428 86.5142 279.889 87.9948L279.563 88.8899L271.374 85.9091C270.871 85.7261 270.322 85.9888 270.145 86.4755L262.977 106.168C262.438 107.648 263.216 109.295 264.71 109.839L290.121 119.088C291.615 119.632 293.27 118.87 293.808 117.389L300.969 97.716C300.969 97.7149 300.97 97.7137 300.97 97.7125C301.15 97.1121 300.901 96.6602 300.404 96.4756ZM281.696 88.6523C281.875 88.1589 282.427 87.9047 282.925 88.086L290.151 90.7161C290.649 90.8973 290.908 91.4465 290.728 91.9399L290.402 92.835L281.37 89.5474L281.696 88.6523ZM298.494 97.8073L292.653 105.125C292.397 105.447 291.963 105.567 291.574 105.426L286.493 103.576L286.819 102.681C286.999 102.187 286.74 101.639 286.241 101.457L279.015 98.8271C278.516 98.6455 277.966 98.899 277.786 99.3934L277.46 100.289L272.379 98.4392C271.99 98.2975 271.735 97.9262 271.745 97.5153L271.976 88.1555L298.494 97.8073ZM284.686 102.919L284.035 104.709L278.615 102.736L279.267 100.946L284.686 102.919ZM292.002 116.732C291.822 117.225 291.271 117.479 290.773 117.298L265.361 108.049C264.863 107.868 264.604 107.319 264.784 106.825L269.944 92.6488L269.826 97.4577C269.795 98.6904 270.56 99.8042 271.728 100.229L276.809 102.079L276.483 102.974C276.303 103.468 276.562 104.016 277.06 104.198L284.286 106.828C284.785 107.009 285.336 106.756 285.515 106.261L285.841 105.366L290.922 107.216C292.09 107.641 293.392 107.279 294.161 106.315L297.162 102.555L292.002 116.732Z" fill="black"/>
<path d="M343.231 131.211C343.425 130.654 343.395 130.061 343.148 129.54C343.006 129.243 342.803 128.989 342.553 128.793C342.919 128.523 343.197 128.149 343.35 127.71C343.543 127.154 343.514 126.561 343.267 126.04C343.13 125.753 342.936 125.506 342.698 125.313L342.722 125.301C343.243 125.034 343.638 124.581 343.832 124.024C344.026 123.468 343.996 122.875 343.749 122.354C343.501 121.834 343.066 121.448 342.522 121.268C341.978 121.089 341.391 121.137 340.869 121.403L340.844 121.416C340.841 121.107 340.774 120.797 340.635 120.504C340.125 119.43 338.833 119.003 337.756 119.553L332.402 122.287C332.387 121.609 332.063 120.957 331.47 120.562C331.194 120.377 330.888 120.267 330.576 120.228C331.015 119.265 330.726 118.111 329.846 117.523C329.579 117.345 329.285 117.237 328.984 117.194L329 117.17C329.678 116.156 329.431 114.798 328.45 114.143C327.469 113.487 326.12 113.779 325.443 114.792L325.427 114.816C325.272 114.555 325.06 114.324 324.793 114.146C323.812 113.49 322.463 113.782 321.785 114.795L316.869 122.151L316.716 121.12C316.525 119.836 315.332 118.973 314.057 119.195C312.907 119.396 312.037 120.433 312.034 121.609C312.027 123.862 312.227 126.122 312.627 128.326L312.652 128.461L309.285 133.497C309.191 133.639 309.155 133.81 309.185 133.975C309.215 134.14 309.308 134.283 309.445 134.375L318.288 140.285C318.573 140.475 318.963 140.391 319.16 140.097L320.889 137.51L322.188 140.243C322.237 140.346 322.31 140.428 322.398 140.486C322.576 140.605 322.813 140.626 323.023 140.519L327.411 138.278C328.894 138.202 330.369 137.935 331.796 137.484C332.129 137.379 332.323 137.022 332.229 136.688C332.135 136.354 331.789 136.168 331.456 136.273C330.09 136.705 328.677 136.955 327.258 137.016C327.167 137.02 327.078 137.044 326.997 137.086L323.052 139.1L321.711 136.279L321.92 135.968C324.045 134.603 325.837 132.841 327.25 130.728L331.72 124.039L338.293 120.683C338.745 120.452 339.288 120.631 339.503 121.083C339.717 121.533 339.525 122.086 339.076 122.319L331.748 126.06C331.435 126.22 331.302 126.602 331.45 126.914C331.599 127.226 331.972 127.35 332.285 127.19L341.406 122.533C341.859 122.302 342.402 122.481 342.616 122.933C342.72 123.151 342.733 123.401 342.651 123.634C342.57 123.868 342.404 124.059 342.185 124.171L333.064 128.828C332.751 128.988 332.618 129.37 332.766 129.682C332.914 129.994 333.288 130.118 333.601 129.958L340.924 126.219C341.143 126.107 341.39 126.087 341.618 126.162C341.847 126.238 342.03 126.4 342.134 126.618C342.238 126.837 342.251 127.086 342.169 127.32C342.088 127.554 341.922 127.745 341.703 127.857L334.379 131.596C334.067 131.756 333.933 132.138 334.082 132.45C334.23 132.762 334.604 132.885 334.916 132.726L340.81 129.717C341.028 129.607 341.273 129.587 341.5 129.662C341.728 129.738 341.911 129.9 342.015 130.119C342.119 130.337 342.132 130.587 342.05 130.821C341.969 131.054 341.803 131.245 341.584 131.357L336.545 133.93C336.233 134.089 336.099 134.472 336.248 134.784C336.297 134.886 336.37 134.968 336.457 135.027C336.635 135.146 336.873 135.166 337.082 135.059L342.121 132.487C342.642 132.22 343.037 131.767 343.231 131.211ZM326.218 130.038C324.883 132.036 323.182 133.696 321.161 134.972C321.084 135.021 321.017 135.086 320.966 135.163L318.485 138.875L310.673 133.654L313.83 128.929C313.925 128.788 313.961 128.616 313.931 128.452L313.86 128.06C313.473 125.932 313.28 123.75 313.287 121.574C313.289 121.025 313.695 120.54 314.233 120.446C314.83 120.342 315.387 120.746 315.476 121.346L315.862 123.945C315.884 124.116 315.976 124.275 316.128 124.377C316.333 124.514 316.603 124.512 316.815 124.372C316.895 124.319 316.96 124.251 317.009 124.173L322.816 115.484C323.101 115.058 323.668 114.936 324.08 115.212C324.493 115.487 324.596 116.058 324.312 116.484L319.706 123.375C319.509 123.669 319.581 124.062 319.866 124.253C320.15 124.443 320.541 124.359 320.737 124.064L326.474 115.481C326.758 115.055 327.326 114.933 327.738 115.209C328.15 115.484 328.254 116.055 327.969 116.481L322.233 125.064C322.036 125.358 322.107 125.751 322.392 125.941C322.677 126.131 323.067 126.047 323.264 125.753L327.87 118.862C328.154 118.436 328.721 118.313 329.134 118.589C329.546 118.864 329.65 119.435 329.365 119.861L324.759 126.752C324.563 127.047 324.634 127.44 324.919 127.63C325.204 127.82 325.594 127.736 325.791 127.442L329.494 121.9C329.779 121.474 330.346 121.352 330.758 121.627C331.17 121.903 331.274 122.474 330.989 122.9L326.218 130.038L326.218 130.038Z" fill="black"/>
<path d="M334.622 135.262C334.486 135.171 334.316 135.139 334.153 135.175C333.991 135.21 333.844 135.31 333.75 135.451C333.657 135.591 333.619 135.765 333.65 135.928C333.679 136.091 333.774 136.237 333.91 136.328C334.045 136.419 334.217 136.451 334.379 136.416C334.541 136.38 334.688 136.28 334.782 136.14C334.875 136 334.912 135.825 334.882 135.662C334.853 135.498 334.758 135.353 334.622 135.262Z" fill="black"/>
<path d="M299.419 126.745L292.244 128.529C290.658 128.923 289.052 129.115 287.459 129.112C287.423 129.109 287.387 129.109 287.35 129.112C286.756 129.108 286.165 129.076 285.578 129.017C285.547 129.01 285.515 129.005 285.483 129.003C285.473 129.003 285.464 129.003 285.455 129.003C284.16 128.865 282.884 128.596 281.646 128.198C281.629 128.19 281.612 128.184 281.594 128.178C281.586 128.176 281.577 128.174 281.568 128.171C280.905 127.955 280.253 127.702 279.615 127.412C279.609 127.409 279.604 127.407 279.599 127.404C279.196 127.221 278.799 127.023 278.409 126.81L276.599 125.824C275.918 125.454 275.087 125.438 274.374 125.782L271.742 127.053C271.741 127.053 271.741 127.053 271.74 127.054L269.365 128.2C268.748 128.498 269.195 129.426 269.813 129.128L271.893 128.123C277.962 132.405 285.706 134.081 293.184 132.735L276.719 140.683C274.776 138.918 272.251 137.812 269.586 137.564L269.199 137.528C269.157 136.832 268.979 136.146 268.678 135.521L266.389 130.78L267.743 130.127C268.359 129.829 267.913 128.901 267.295 129.199L265.462 130.084C265.197 130.212 265.083 130.523 265.207 130.779L267.719 135.984C268.02 136.607 268.169 137.305 268.149 138.001C268.149 138.002 268.149 138.003 268.149 138.005C268.149 138.006 268.149 138.006 268.149 138.007C268.127 138.862 268.31 139.717 268.679 140.482L270.501 144.257L271.585 146.502C271.999 147.361 273.059 147.712 273.946 147.284L298.834 135.269C299.45 134.972 299.004 134.044 298.386 134.342L273.498 146.356C273.139 146.529 272.711 146.387 272.543 146.039L272.489 145.928L281.811 141.428C282.427 141.13 281.981 140.202 281.363 140.5L272.041 145L271.683 144.258L276.834 141.771C276.836 141.771 276.837 141.77 276.838 141.769L302.476 129.393L303.424 131.357C303.543 131.604 303.433 131.906 303.178 132.029L300.529 133.307C299.913 133.605 300.36 134.533 300.977 134.235L303.626 132.956C304.409 132.578 304.749 131.653 304.382 130.894L303.21 128.467C302.545 127.088 300.95 126.364 299.419 126.745ZM271.235 143.33L269.637 140.02C269.419 139.567 269.282 139.076 269.23 138.575L269.459 138.596C271.761 138.81 273.949 139.724 275.682 141.184L271.235 143.33ZM295.502 131.154C287.785 133.27 279.472 131.963 272.988 127.595L274.822 126.71C275.22 126.517 275.686 126.526 276.067 126.734L276.619 127.034L275.806 127.893C275.605 128.106 275.614 128.434 275.826 128.625C276.032 128.812 276.377 128.795 276.574 128.587L277.559 127.546L277.877 127.719C278.126 127.855 278.378 127.984 278.633 128.109L278.03 129.102C277.88 129.351 277.96 129.667 278.21 129.808C278.454 129.946 278.789 129.856 278.936 129.614L279.584 128.545C279.97 128.71 280.36 128.861 280.754 129L280.396 130.028C280.301 130.301 280.447 130.592 280.724 130.678C280.994 130.762 281.302 130.608 281.396 130.34L281.749 129.324C282.106 129.43 282.465 129.524 282.826 129.61L282.585 130.516C282.511 130.795 282.68 131.074 282.962 131.139C283.238 131.204 283.536 131.025 283.608 130.754L283.856 129.824C284.195 129.886 284.535 129.939 284.878 129.983L284.794 131.066C284.772 131.352 284.99 131.595 285.281 131.609C285.566 131.623 285.827 131.398 285.849 131.118L285.928 130.091C286.256 130.116 286.586 130.132 286.916 130.141L287.049 131.323C287.08 131.606 287.342 131.805 287.632 131.767C287.915 131.729 288.131 131.459 288.1 131.183L287.983 130.142C288.368 130.132 288.752 130.113 289.137 130.081L289.415 131.321C289.477 131.599 289.759 131.769 290.045 131.7C290.323 131.634 290.51 131.346 290.448 131.074L290.2 129.967C290.55 129.92 290.9 129.864 291.249 129.799L291.669 130.872C291.772 131.137 292.078 131.264 292.351 131.155C292.617 131.05 292.759 130.74 292.658 130.48L292.304 129.574C292.362 129.56 292.421 129.547 292.479 129.533L294.479 129.036L295.502 131.154ZM296.641 131.066L295.534 128.773L299.654 127.749C300.527 127.532 301.43 127.839 301.971 128.493L296.641 131.066Z" fill="black"/>
<path d="M370.818 92.2334L370.676 92.2981C370.672 92.2945 370.668 92.2905 370.664 92.287L363.308 85.668C362.146 84.6227 360.44 84.6314 359.339 85.6884L357.991 86.9834C357.668 87.2929 357.659 87.817 357.97 88.154C358.281 88.4911 358.794 88.5134 359.117 88.2039L360.465 86.9089C360.961 86.4326 361.73 86.4287 362.253 86.8997L369.067 93.0305L362.243 96.138C361.128 96.6458 360.529 97.8397 360.692 99.0299L359.016 99.7933C358.225 98.8888 356.931 98.5565 355.816 99.0644L348.992 102.172L348.841 93.0071C348.829 92.3029 349.337 91.7258 350.022 91.6642L351.884 91.4972C352.329 91.4572 352.649 91.0554 352.599 90.5997C352.549 90.1438 352.148 89.8066 351.703 89.8466L349.84 90.0136C348.32 90.1498 347.194 91.4311 347.219 92.9939L347.382 102.888C347.383 102.894 347.383 102.899 347.383 102.904L347.241 102.969C346.836 103.153 346.662 103.642 346.853 104.061L348.28 107.195C349.81 110.555 353.7 112.084 356.952 110.604C360.204 109.123 361.604 105.185 360.074 101.825L359.817 101.259L361.272 100.597L361.53 101.162C363.06 104.522 366.95 106.051 370.201 104.571L370.202 104.571C373.453 103.09 374.854 99.1518 373.324 95.7917L371.897 92.6575C371.706 92.2388 371.223 92.0489 370.818 92.2334ZM358.607 102.493C359.756 105.017 358.704 107.975 356.261 109.087L356.261 109.087C353.819 110.2 350.897 109.051 349.747 106.527L348.666 104.151L356.507 100.581C357.068 100.325 357.74 100.589 358.004 101.169L358.607 102.493ZM371.856 96.4599C373.006 98.9838 371.954 101.942 369.511 103.054C367.068 104.167 364.146 103.018 362.997 100.494L362.394 99.1703C362.13 98.5901 362.372 97.91 362.933 97.6543L370.774 94.0838L371.856 96.4599Z" fill="black"/>
<path d="M375.821 179H267.143L235.179 55H216M241.571 78.619H395L375.821 155.381H260.75L241.571 78.619Z" stroke="black" stroke-width="3" stroke-linecap="round" stroke-linejoin="round"/>
<path d="M363 215C370.18 215 376 209.627 376 203C376 196.373 370.18 191 363 191C355.82 191 350 196.373 350 203C350 209.627 355.82 215 363 215Z" stroke="black" stroke-width="3" stroke-linecap="round" stroke-linejoin="round"/>
<path d="M280 215C287.18 215 293 209.627 293 203C293 196.373 287.18 191 280 191C272.82 191 267 196.373 267 203C267 209.627 272.82 215 280 215Z" stroke="black" stroke-width="3" stroke-linecap="round" stroke-linejoin="round"/>
<path d="M301.104 31.032C301.104 29.736 300.24 29.256 299.136 29.208C298.56 29.16 297.648 29.544 297.168 29.88L290.16 33.768C289.2 34.296 288.816 35.064 289.008 35.88C289.248 36.744 289.92 37.704 291.648 36.84L294.576 35.256C295.392 34.872 296.16 34.488 297.024 33.816V61.992C297.024 63.384 298.032 63.768 299.04 63.768C300.096 63.768 301.104 63.384 301.104 61.992V31.032ZM327.966 46.152C327.966 35.976 324.846 28.824 316.302 28.824C307.758 28.824 304.686 35.976 304.686 46.152C304.686 56.376 308.142 63.528 316.302 63.528C324.462 63.528 327.966 56.376 327.966 46.152ZM309.054 46.152C309.054 39.864 309.486 31.992 316.302 31.992C323.166 31.992 323.598 39.864 323.598 46.152C323.598 52.488 322.926 60.36 316.302 60.36C309.678 60.36 309.054 52.488 309.054 46.152ZM356.258 30.696C356.882 29.592 356.066 29.304 355.25 29.304C354.482 29.304 353.714 29.592 353.09 30.696L335.57 61.752C334.946 62.856 335.762 63.144 336.578 63.144C337.346 63.144 338.114 62.856 338.738 61.752L356.258 30.696ZM331.586 35.688C331.586 39.672 333.41 42.408 337.586 42.408C341.762 42.408 343.586 39.672 343.586 35.688C343.586 31.752 341.858 28.968 337.586 28.968C333.314 28.968 331.586 31.752 331.586 35.688ZM340.658 35.688C340.658 37.656 340.178 40.104 337.586 40.104C334.994 40.104 334.514 37.656 334.514 35.688C334.514 33.72 334.994 31.272 337.586 31.272C340.178 31.272 340.658 33.72 340.658 35.688ZM348.242 56.712C348.242 60.696 350.066 63.432 354.242 63.432C358.418 63.432 360.194 60.696 360.194 56.712C360.194 52.776 358.514 50.04 354.242 50.04C349.922 50.04 348.242 52.776 348.242 56.712ZM357.314 56.712C357.314 58.68 356.786 61.128 354.242 61.128C351.65 61.128 351.122 58.68 351.122 56.712C351.122 54.744 351.65 52.344 354.242 52.344C356.786 52.344 357.314 54.744 357.314 56.712Z" fill="black"/>
<circle cx="78.5" cy="35.5" r="35.5" fill="#B11116" fill-opacity="0.34"/>
<defs>
<filter id="filter0_b" x="50" y="239" width="170" height="170" filterUnits="userSpaceOnUse" color-interpolation-filters="sRGB">
<feFlood flood-opacity="0" result="BackgroundImageFix"/>
<feGaussianBlur in="BackgroundImage" stdDeviation="2"/>
<feComposite in2="SourceAlpha" operator="in" result="effect1_backgroundBlur"/>
<feBlend mode="normal" in="SourceGraphic" in2="effect1_backgroundBlur" result="shape"/>
</filter>
</defs>
</svg>
