

<svg>

    <symbol id="boots" viewBox="0 0 28 21" fill="" xmlns="http://www.w3.org/2000/svg">
        <path d="M0.109842 12.5647C0.182777 12.059 0.293388 11.5517 0.438435 11.0572C0.770212 9.92343 0.890928 8.75783 0.797398 7.59293C0.710403 6.51585 0.669926 5.3708 0.669926 3.98938V2.11317L8.25879 2.11368C8.4459 1.36323 8.89049 0.90479 9.27834 0.636966C10.5703 -0.25508 12.4229 0.0387895 12.6299 0.0751796L13.2865 0.190733L13.2855 5.94787H13.2845C13.2849 5.96819 13.2864 5.98827 13.2864 6.00863C13.2864 7.68197 14.5783 9.16637 16.4265 9.62117C16.7244 9.68245 21.5256 10.6486 24.062 11.1587L24.0767 11.1618C26.3867 11.6646 28 13.4287 28 15.4518V21H14.0857L10.9204 20.3278L8.04883 21H0V15.5409C0 15.1652 0.029932 13.1189 0.109842 12.5647ZM2.0374 11.3943C1.90839 11.8342 1.81009 12.2851 1.74528 12.7345C1.7025 13.0313 1.67064 14.0774 1.6562 14.842H8.42926C8.29037 13.3859 7.7053 12.2246 6.6841 11.3838C5.29531 10.2404 3.39433 9.92711 2.37143 9.84208C2.29833 10.3637 2.18734 10.8819 2.0374 11.3943ZM2.33299 5.35328L5.16564 5.05638C6.17915 4.95015 6.98407 4.32006 7.22238 3.51099H2.31761C2.31761 3.51099 2.32272 4.9234 2.33299 5.35328ZM10.3145 1.72382C10.1275 1.8541 9.99412 2.03009 9.91257 2.25532C10.5546 2.40554 11.1411 2.67108 11.6384 3.0246L11.6387 1.39995C11.1998 1.40447 10.6703 1.47608 10.3145 1.72382ZM26.3524 15.4518C26.3524 14.0692 25.2515 12.8634 23.6743 12.5173C23.3505 12.4522 23.0414 12.39 22.7443 12.3303L22.2248 13.7108L20.6553 13.2857L21.1365 12.0068C20.3897 11.8565 19.7521 11.7282 19.2069 11.6185L18.6456 13.0477L17.0824 12.6058L17.5975 11.2944C16.0239 10.9773 16.0018 10.972 15.9864 10.9683C15.8578 10.937 15.7318 10.9012 15.6073 10.8629L15.0712 12.2143L13.5097 11.7685L14.1337 10.1952C12.6053 9.24516 11.6387 7.69679 11.6387 6.00868C11.6387 4.6923 10.4256 3.60782 8.89807 3.51961C8.6339 5.03374 7.20458 6.25111 5.36759 6.44368L2.38972 6.75577C2.40455 7.00812 2.42163 7.25489 2.44124 7.49764C2.46655 7.81327 2.47759 8.1289 2.47501 8.44411C3.72347 8.53981 6.0463 8.91802 7.81926 10.3707C9.2171 11.516 9.98056 13.0798 10.0941 15.0239L16.6703 16.7776H26.3524V15.4518ZM1.64763 19.6022H3.56569V18.3397H5.21331V19.6022H7.11347V18.3397H8.7611V19.3833L10.9 18.8826L14.2888 19.6022H26.3524V18.1754H16.4174L9.15938 16.2398H1.64768V19.6022H1.64763Z" fill=""/>
    </symbol>

    <symbol id="dutik" viewBox="0 0 35 24" fill="" xmlns="http://www.w3.org/2000/svg">
        <path d="M31.0428 14.9751H29.5772C28.6594 14.9751 27.7634 14.7984 26.9142 14.4501L25.9034 14.0353C25.9023 14.0348 25.9013 14.0344 25.9002 14.034L19.0056 11.2051C17.5216 10.5963 16.4237 9.29847 16.0688 7.73443L14.831 2.23211C14.8366 2.18887 14.8372 2.14429 14.8312 2.09904L14.7686 1.63592C14.675 0.942761 14.2293 0.379101 13.5764 0.12845C12.9239 -0.121998 12.2158 -0.00179035 11.6825 0.450417C11.6736 0.458027 11.6648 0.465973 11.6564 0.474257L9.17833 2.89328L6.26885 4.02612C6.00884 4.12734 5.88015 4.42015 5.98136 4.68009C6.08251 4.9401 6.37539 5.0688 6.63533 4.96758L10.1474 3.60005C10.6704 3.3964 11.2039 3.23222 11.7454 3.10743L12.1572 4.94051L11.5455 5.10624C11.2762 5.17917 11.1171 5.45662 11.1901 5.72586C11.2614 5.98937 11.5456 6.15302 11.8097 6.0813L12.3789 5.92708L12.7559 7.60493L12.0666 7.79167C11.7973 7.8646 11.6382 8.14206 11.7112 8.41129C11.7825 8.67481 12.0667 8.83845 12.3308 8.76673L12.9775 8.5915L13.089 9.08755C13.2075 9.60986 13.3949 10.1073 13.6417 10.5694L13.0215 10.9004C12.7753 11.0317 12.6823 11.3377 12.8136 11.5839C12.9422 11.8248 13.2562 11.9203 13.4971 11.7917L14.1941 11.4198C14.6081 11.952 15.1113 12.4133 15.6848 12.7802L15.2205 13.2584C15.0262 13.4585 15.0309 13.7783 15.231 13.9727C15.4267 14.1628 15.7546 14.1585 15.9453 13.9622L16.6201 13.2672C16.6213 13.2677 16.6225 13.2682 16.6236 13.2687L18.5147 14.0835L18.2211 14.5431C18.071 14.7782 18.1399 15.0906 18.3749 15.2407C18.3777 15.2424 18.3806 15.2436 18.3834 15.2453C16.3227 15.4269 14.3875 16.2788 12.8437 17.7007L12.8326 17.711L11.448 17.198C11.1863 17.1012 10.8957 17.2346 10.7988 17.4962C10.7019 17.7578 10.8354 18.0485 11.097 18.1454L17.379 20.4731C17.4352 20.4939 17.4946 20.5045 17.5545 20.5045H30.242C30.9497 20.5045 31.5971 20.0884 31.8909 19.4443C32.021 19.1591 32.3075 18.9749 32.6207 18.9749H33.4494L33.448 20.232C33.4424 21.5135 32.3959 22.556 31.1151 22.556H31.0557V21.9946C31.0557 21.3446 30.0454 21.3435 30.0454 21.9946V22.556H27.0006V21.9946C27.0006 21.3446 25.9904 21.3435 25.9904 21.9946V22.556H23.145V21.9946C23.145 21.3446 22.1347 21.3435 22.1347 21.9946V22.556H19.5553V21.9946C19.5553 21.3446 18.545 21.3435 18.545 21.9946V22.556H17.6086L12.1786 20.93C11.95 20.8614 11.7044 20.9625 11.5902 21.1721L10.8356 22.556H8.71966V21.9946C8.71966 21.3446 7.70938 21.3435 7.70938 21.9946V22.556H5.13008V21.9946C5.13008 21.3446 4.1198 21.3435 4.1198 21.9946V22.5556C2.76136 22.5465 1.65903 21.4384 1.65903 20.0772V18.177H4.12634H8.9161C9.56616 18.177 9.56724 17.1667 8.9161 17.1667H4.4087L3.96316 16.4424C3.61702 15.8797 3.62382 15.1567 3.98061 14.6006L4.89909 13.1689C5.69765 11.924 5.34915 10.2397 4.12209 9.4143L3.00865 8.66524V7.12094C3.00865 7.1208 3.00865 7.12067 3.00865 7.12053V6.74186C3.00865 6.53014 3.13343 6.33996 3.32711 6.25565L4.82407 5.67279C5.08409 5.57158 5.21278 5.27877 5.11156 5.01883C5.01041 4.75888 4.71761 4.63012 4.45759 4.73134L2.95295 5.31722C2.94851 5.31891 2.94413 5.32072 2.93975 5.32261C2.55637 5.48444 2.26471 5.78862 2.11359 6.1584C1.90584 6.07813 1.68253 6.04318 1.45801 6.06217C0.925931 6.10729 0.461871 6.45081 0.184823 7.0045C-0.0943137 7.56217 0.00373754 8.10286 0.086906 8.3756C0.227518 8.83623 0.489819 9.07341 0.721141 9.28271C0.832661 9.38366 0.938053 9.47895 1.03772 9.60515C1.27564 9.90664 1.4139 10.3127 1.45161 10.8119L1.34581 11.0423C1.02971 11.7306 0.862629 12.4947 0.862629 13.2522V17.2596C0.733465 17.3511 0.64895 17.5014 0.64895 17.6718V20.0771C0.64895 22.001 2.21353 23.5662 4.13677 23.5662H11.136C11.3208 23.5662 11.491 23.4652 11.5795 23.3028L12.2815 22.0152L17.3901 23.5449C17.4371 23.5589 17.4859 23.5661 17.5349 23.5661H31.1154C32.6962 23.5661 34.027 22.4577 34.3712 20.9762C34.4388 20.8903 34.4795 20.7822 34.4795 20.6643V18.413C34.4794 16.5174 32.9377 14.9751 31.0428 14.9751ZM23.2745 14.0487L25.3901 14.9168C25.4565 15.0321 25.4216 15.1445 25.4002 15.1929C25.3748 15.2506 25.2956 15.3833 25.1059 15.3784L19.5065 15.2127C19.3227 15.2071 19.1396 15.2076 18.9571 15.2126C19.0012 15.1782 19.0408 15.1368 19.0726 15.087L19.4547 14.4887L20.2962 14.8513C20.2987 14.8524 20.3013 14.8535 20.3039 14.8545C20.622 14.9854 20.9511 15.0479 21.2747 15.0478C22.0525 15.0477 22.797 14.6863 23.2745 14.0487ZM20.4704 12.8982L22.2825 13.6418C21.8635 14.0197 21.241 14.1459 20.692 13.9218L20.0057 13.626L20.4704 12.8982ZM11.3796 2.15615L12.348 1.21085C12.5938 1.0095 12.9165 0.95724 13.2142 1.07166C13.5171 1.18796 13.7238 1.44945 13.7673 1.77121L13.7734 1.81654C12.9633 1.85216 12.1634 1.96597 11.3796 2.15615ZM12.7396 2.92406C13.1326 2.86944 13.529 2.83503 13.928 2.82122L14.2756 4.36648L13.1332 4.67598L12.7396 2.92406ZM13.3549 5.66263L14.4974 5.35298L14.8749 7.03076L13.7319 7.34047L13.3549 5.66263ZM14.5328 10.0941C14.3282 9.71074 14.1727 9.2982 14.0744 8.86512L13.9535 8.32712L15.0978 8.01707C15.2214 8.53682 15.4131 9.03159 15.6639 9.49046L14.5328 10.0941ZM16.4065 12.037C15.9074 11.7469 15.4663 11.3732 15.1009 10.9361L16.2247 10.3365C16.4976 10.6803 16.8086 10.9932 17.1516 11.2697L16.4065 12.037ZM17.3732 12.4917L18.0034 11.8427C18.2026 11.9529 18.4089 12.0524 18.622 12.1399L19.5205 12.5085L19.0655 13.2209L17.3732 12.4917ZM32.6208 17.9648C31.9131 17.9647 31.2659 18.3809 30.972 19.0249C30.8419 19.3101 30.5554 19.4943 30.2421 19.4943H17.6452L13.9125 18.1113C15.4805 16.8302 17.4363 16.1621 19.4767 16.2225L25.0762 16.3883C25.7109 16.4071 26.2796 15.9559 26.4097 15.3351L26.5308 15.3848C27.5023 15.7833 28.5272 15.9854 29.5771 15.9854H31.0428C32.2275 15.9854 33.216 16.8397 33.4269 17.9647H32.6208V17.9648ZM2.26377 11.464L2.34424 11.2888C2.40855 11.2159 2.45192 11.1247 2.46573 11.0241L2.52546 10.8941C2.68695 10.5423 2.80857 10.1774 2.88931 9.80273L3.55816 10.2527C4.33294 10.7738 4.55295 11.8373 4.04869 12.6235L3.13027 14.0551C2.56533 14.9357 2.55448 16.0805 3.10266 16.9717L3.22259 17.1667H1.87277V13.2522C1.87277 12.6393 2.00793 12.0209 2.26377 11.464ZM1.39868 8.53345C1.20002 8.35371 1.10971 8.26637 1.05301 8.08064C1.02142 7.9772 0.96169 7.70924 1.08809 7.45657C1.15624 7.32047 1.30595 7.08895 1.54326 7.06881C1.7094 7.05494 1.87856 7.13838 1.9983 7.28572V8.68423C1.9983 8.84707 1.98806 9.01024 1.96927 9.17254C1.92577 9.1058 1.87957 9.04135 1.83055 8.9792C1.67849 8.78653 1.52333 8.64618 1.39868 8.53345Z" fill=""/>
    </symbol>

    <symbol id="sneakers" viewBox="0 0 32 17" fill="" xmlns="http://www.w3.org/2000/svg">
        <path d="M28.8532 10.0772L22.6485 8.7805C21.2776 8.49399 19.9657 8.04381 18.7369 7.44748C18.7107 7.43153 18.6825 7.41794 18.6526 7.40711C18.1962 7.18245 17.7516 6.9375 17.3199 6.673C17.2989 6.65611 17.2763 6.64057 17.2517 6.62715C17.2446 6.62327 17.2373 6.62015 17.23 6.61667C16.2823 6.02759 15.3975 5.34439 14.5901 4.57509C14.5799 4.56326 14.569 4.55184 14.5572 4.54089C14.5514 4.53548 14.5452 4.53077 14.5393 4.52571C14.1083 4.11142 13.6989 3.67307 13.3145 3.21105C13.3113 3.20716 13.3082 3.20322 13.3049 3.19945C13.0626 2.90777 12.83 2.60689 12.6077 2.29714L11.5776 0.861706C11.1903 0.322176 10.5542 5.88234e-05 9.87592 5.88234e-05H7.36987C7.36938 5.88234e-05 7.36884 5.88234e-05 7.36835 5.88234e-05H5.1074C4.52039 5.88234e-05 4.51941 0.882894 5.1074 0.882894H7.08786C10.1779 6.4507 15.532 10.631 21.8069 12.3782H6.13235C5.29034 10.2912 3.75287 8.49623 1.78791 7.312L1.5025 7.13996C1.72929 6.58672 1.848 5.99116 1.848 5.39612V0.882835H3.13679C3.7238 0.882835 3.72477 0 3.13679 0H1.39187C1.1399 0 0.935739 0.197637 0.935739 0.441418V5.39612C0.935739 5.98945 0.790628 6.58336 0.516219 7.11359C0.515733 7.11459 0.515246 7.11559 0.51476 7.11659C0.514395 7.1173 0.514091 7.11795 0.513726 7.11865C0.177648 7.76983 0 8.49858 0 9.22663V12.8198V14.9572C0 15.7751 0.687056 16.4406 1.53157 16.4406H25.2243C25.8113 16.4406 25.8122 15.5578 25.2243 15.5578H1.53157C1.19014 15.5578 0.912263 15.2884 0.912263 14.9572V14.8509H9.78633C10.3733 14.8509 10.3743 13.968 9.78633 13.968H0.912263V13.2611H5.81598C5.81738 13.2613 5.81884 13.2613 5.82024 13.2611H30.2263V15.1308C30.2263 15.3662 30.0289 15.5577 29.7863 15.5577H27.2647C26.6777 15.5577 26.6768 16.4406 27.2647 16.4406H29.7863C30.532 16.4406 31.1386 15.853 31.1386 15.1308V12.8197C31.1386 11.5073 30.1774 10.3539 28.8532 10.0772ZM0.912263 12.3784V9.22663C0.912263 8.79622 0.989562 8.36592 1.13632 7.95947L1.30563 8.06152C3.00274 9.08432 4.35143 10.605 5.14583 12.3784H0.912263ZM24.1854 12.0216C17.4392 10.7792 11.5082 6.67235 8.1296 0.882953H9.87574C10.2553 0.882953 10.6114 1.06329 10.8281 1.36539L11.1424 1.80322L10.1947 2.16383C9.96027 2.25305 9.84496 2.50931 9.93716 2.7362C10.027 2.95726 10.2995 3.07262 10.5286 2.98545L11.6772 2.54833L11.8583 2.80077C12.0003 2.99858 12.1468 3.19245 12.2965 3.38332L11.4614 3.92562C11.2523 4.06145 11.1964 4.33572 11.3368 4.53813C11.4736 4.73541 11.7664 4.79068 11.9697 4.65872L12.8684 4.07511C13.1047 4.34573 13.3498 4.60775 13.6018 4.86213L12.9425 5.52214C12.7673 5.69741 12.7722 5.97685 12.9533 6.1463C13.1305 6.31204 13.4264 6.3078 13.5983 6.13576L14.2499 5.48353C14.4857 5.6977 14.7279 5.90452 14.9751 6.1051L14.4507 6.71526C14.2896 6.90271 14.316 7.18098 14.5097 7.33689C14.6989 7.48921 14.9953 7.4622 15.152 7.2798L15.6897 6.65428C15.9286 6.8282 16.1718 6.99629 16.4196 7.15791L15.9514 7.96282C15.8279 8.17523 15.9057 8.44444 16.1252 8.56397C16.34 8.68098 16.6251 8.60429 16.7464 8.39582L17.1903 7.6327C17.4346 7.77437 17.6828 7.90997 17.9343 8.03992L17.5963 9.00139C17.5152 9.23216 17.6428 9.48295 17.8813 9.56146C18.1137 9.63791 18.3811 9.51037 18.4601 9.28572L18.758 8.43808C19.0583 8.57392 19.3628 8.70217 19.6717 8.82147L19.4242 9.88175C19.3686 10.1196 19.5228 10.3559 19.7686 10.4096C20.0086 10.4622 20.2595 10.3095 20.314 10.0763L20.535 9.12922C20.8227 9.22357 21.1138 9.31032 21.4077 9.39031L21.3314 10.375C21.3125 10.6181 21.5009 10.83 21.7522 10.8482C21.9974 10.8659 22.2227 10.6794 22.2412 10.4411L22.3055 9.61025C22.3557 9.6212 22.4056 9.63297 22.456 9.64351L24.1854 10.0049V12.0216ZM25.0976 12.3784V10.1955L28.6606 10.9401C29.4155 11.0978 29.9978 11.6718 30.1721 12.3784H25.0976Z" fill=""/>
    </symbol>

    <symbol id="sneakers2" viewBox="0 0 40 18" fill="" xmlns="http://www.w3.org/2000/svg">
        <path d="M32.1742 9.48931C32.088 9.48931 32.0004 9.47168 31.9178 9.43456L29.0517 8.14579L27.8093 9.91859C27.6758 10.1092 27.4524 10.2189 27.2138 10.2189C27.1636 10.2189 27.1128 10.214 27.0619 10.204C26.7694 10.1467 26.5517 9.9343 26.5071 9.66319L26.0065 6.7765L23.6534 8.89057C23.4375 9.08458 23.1104 9.13227 22.8397 9.00913C22.5689 8.88607 22.412 8.61854 22.4495 8.34337L22.8126 5.67552L20.6539 7.56753C20.421 7.77168 20.0662 7.80666 19.7913 7.65248C19.5164 7.49837 19.3885 7.19286 19.4804 6.90948L20.3572 4.20466L17.6901 5.9936C17.4299 6.16812 17.0648 6.11615 16.8745 5.87746C16.6843 5.63876 16.741 5.30385 17.0011 5.12932L20.0813 3.06329L18.843 1.1787C18.7921 1.10132 18.7145 1.07962 18.6727 1.07356C18.631 1.06749 18.5497 1.06627 18.4755 1.12559L16.613 2.61245C16.3698 2.80653 16.0012 2.78312 15.7896 2.56005C15.5781 2.33699 15.6036 1.99886 15.8468 1.80478L17.7093 0.317922C18.0244 0.066377 18.4419 -0.0438346 18.8543 0.0159108C19.2668 0.0755135 19.6271 0.297863 19.8427 0.625999L21.0681 2.4911C21.2469 2.46526 21.4341 2.50202 21.5891 2.60224C21.8389 2.76384 21.9481 3.05294 21.861 3.32175L21.8087 3.48343C22.0783 3.74518 22.8479 4.1639 22.8479 4.1639L22.9318 4.09031C23.149 3.90001 23.475 3.85532 23.7433 3.97917C24.0115 4.10301 24.1667 4.36983 24.1295 4.64308L24.1171 4.73452L25.7793 5.48194L25.8485 5.4197C26.0404 5.24738 26.3175 5.18899 26.5723 5.26708C26.8269 5.34532 27.0099 5.54511 27.05 5.78866L27.097 6.07447L28.6338 6.7655C28.8154 6.54144 29.1573 6.48134 29.417 6.63452C29.6377 6.76465 29.7307 7.00827 29.6637 7.22855L32.4315 8.47314C32.7209 8.60326 32.8405 8.92398 32.6986 9.18951C32.5973 9.37917 32.3899 9.48938 32.1742 9.48931ZM21.44 4.62088L21.0882 5.70615L21.9576 4.94416C21.7764 4.8473 21.6036 4.73916 21.44 4.62088ZM23.9641 5.85811L23.7695 7.28765L24.8948 6.27662L23.9641 5.85811ZM27.4809 8.40732L27.9966 7.67139L27.3089 7.36217L27.4809 8.40732Z" fill=""/>
        <path d="M0.889725 12.0274C0.887699 12.0069 0.912132 9.97203 0.912132 8.99269C0.912132 8.98084 0.912521 8.96928 0.913456 8.95743C0.979206 8.09979 1.55984 7.5139 2.07209 6.99697C2.24989 6.81759 2.41959 6.64592 2.56487 6.46946C2.08944 6.11292 1.97668 5.49398 2.30661 5.01444L2.84391 4.23333C3.11959 3.83267 3.62413 3.64565 4.10665 3.73495L4.74362 1.01956C4.82595 0.668585 5.1642 0.417969 5.55559 0.417969H8.72785C9.43781 0.417969 10.0134 0.945899 10.0133 1.59725V3.58748C10.0133 3.72945 10.0328 3.87171 10.081 4.00662C10.2874 4.58409 10.8873 4.94984 11.544 4.90373C11.8546 4.88196 12.1465 4.75869 12.3815 4.5711L13.9692 3.30367C14.2168 3.10594 14.5946 3.134 14.8042 3.3687C15.0066 3.59547 14.9581 3.9336 14.7171 4.12604L13.1263 5.39597C12.6525 5.77415 12.0502 5.97837 11.4311 5.97829C11.3069 5.97829 11.182 5.97009 11.0574 5.95338C10.3113 5.85366 9.6518 5.46136 9.24795 4.87725C8.98518 4.49701 8.84621 4.05809 8.84621 3.60789V1.59725C8.84621 1.53729 8.79322 1.48868 8.72785 1.48868H5.82755L5.19275 4.19471L7.43461 5.23922C7.73847 5.38077 7.96467 5.63481 8.05517 5.93625C8.14566 6.23769 8.09329 6.56212 7.91145 6.82644L7.0531 8.07431C6.93576 8.24484 6.77647 8.39031 6.58186 8.48418C6.40017 8.57176 6.2058 8.6138 6.01337 8.6138C5.7474 8.6138 5.48557 8.5335 5.27213 8.38282L3.48905 7.12395C3.31358 7.33595 3.1224 7.52911 2.93588 7.71734C2.50114 8.15604 2.12492 8.53564 2.07955 9.01411C2.07955 9.68879 2.07893 10.3788 2.07061 11.0652C2.61374 10.7831 3.24036 10.6212 3.90776 10.6212H11.1556C13.2528 10.6212 15.2976 11.2224 17.0042 12.3406L17.4996 12.6651C18.0517 13.027 18.7134 13.2214 19.3919 13.2214H35.0953C35.8832 13.2214 36.6654 13.1007 37.4099 12.8643L38.3019 12.5811C38.1623 12.3417 37.944 12.1442 37.6725 12.0221L34.1716 10.4479C33.9051 10.3281 33.7615 10.0456 33.8577 9.78801C33.974 9.47651 34.3559 9.33832 34.6677 9.47851L38.1862 11.0607C38.545 11.222 38.8614 11.5028 39.1087 11.8325C39.4502 12.288 39.6242 12.8322 39.639 13.3849C39.6394 13.3999 39.6396 13.4084 39.6396 13.4084C39.6396 15.6572 37.6452 17.4868 35.1938 17.4868H3.96682C1.91296 17.4868 0.19735 15.9913 0.165913 14.1075C0.152916 13.3294 0.424171 12.6091 0.889725 12.0274ZM5.9838 7.53418C5.98784 7.53703 6.00021 7.54581 6.02052 7.54238C6.04091 7.5391 6.04924 7.52704 6.05188 7.52304L6.92424 6.25489C6.92696 6.2509 6.93529 6.2389 6.92976 6.22063C6.92432 6.20236 6.91039 6.19593 6.90588 6.19379L3.89173 4.78938C3.88488 4.78624 3.87757 4.78467 3.87041 4.78467C3.85485 4.78467 3.83975 4.79181 3.83096 4.80473L3.29366 5.58584C3.28067 5.60469 3.28549 5.6291 3.30471 5.64266L5.9838 7.53418ZM9.7847 11.6919V12.7106C9.7847 13.0063 9.52341 13.246 9.20111 13.246C8.87881 13.246 8.61752 13.0063 8.61752 12.7106V11.6919H6.81382V16.4161H8.61752V14.9922C8.61752 14.6965 8.87881 14.4568 9.20111 14.4568C9.52341 14.4568 9.7847 14.6965 9.7847 14.9922V16.4161H11.5884V11.7026C11.4445 11.6962 11.3003 11.6919 11.1553 11.6919H9.7847ZM12.7556 16.416H14.5593V12.3117C13.979 12.0907 13.3751 11.9281 12.7556 11.8249V16.416ZM16.8209 13.5365L16.3255 13.2119C16.1302 13.0839 15.9303 12.964 15.7265 12.8517V16.4161H17.5302V13.9157C17.2836 13.8103 17.0461 13.684 16.8209 13.5365ZM18.6973 14.2424V16.4161H20.501V14.2923H19.3917C19.1572 14.2922 18.9253 14.2753 18.6973 14.2424ZM29.4137 14.2922H27.61V16.416H29.4137V14.2922ZM30.5809 16.416H32.3846V14.2922H30.5809V16.416ZM26.4428 14.2922H24.6391V16.416H26.4428V14.2922ZM23.4719 14.2922H21.6682V16.416H23.4719V14.2922ZM38.4608 13.6638L37.7918 13.8762C37.3765 14.008 36.9525 14.1079 36.5226 14.1772V16.1574C37.5897 15.7217 38.3582 14.7785 38.4608 13.6638ZM35.3554 16.4124V14.2872C35.2688 14.2897 33.5518 14.2921 33.5518 14.2921V16.416C33.5518 16.416 35.3019 16.4148 35.3554 16.4124ZM5.64663 16.416V11.6919C5.64663 11.6919 3.86449 11.6929 3.84294 11.6934V16.4145C3.86442 16.415 5.64663 16.416 5.64663 16.416ZM2.67567 16.1277V11.9803C1.87615 12.3816 1.33263 13.1606 1.33263 14.054C1.33263 14.9474 1.87615 15.7264 2.67567 16.1277Z" fill=""/>
    </symbol>

    <symbol id="loafers" viewBox="0 0 33 15" fill="" xmlns="http://www.w3.org/2000/svg">
        <path d="M30.6924 7.76842L30.5957 7.72325L24.2224 6.31392L24.2057 6.31036C23.6226 6.19203 23.0629 5.94614 22.5872 5.59923L15.0423 0.0982066L14.5998 0.207216C11.0238 1.08856 7.58085 1.09052 4.36648 0.213353L3.58483 0L3.24449 0.713592C3.1453 0.921605 0.814941 5.89477 0.814941 13.4913V14.412H12.6954V12.5368L18.792 14.2184C19.2589 14.3468 19.7417 14.4119 20.2269 14.4119H20.2532L32.9949 13.7306V11.3175C32.9949 9.81467 32.0911 8.42155 30.6924 7.76842ZM31.0922 11.9882L20.2024 12.5705C19.9014 12.5684 19.6021 12.5269 19.313 12.4473L10.7927 10.0972V12.5706H2.72999C2.81898 9.24722 3.37267 6.52716 3.84348 4.77559C4.15077 3.63228 4.46047 2.75346 4.67745 2.19288C7.80531 2.90733 11.1067 2.88346 14.5106 2.12248L12.3434 4.21986L13.6888 5.52189L16.108 3.18072L18.7693 5.12115L16.9627 6.86947L18.3081 8.1715L20.3039 6.24009L21.4421 7.06993C22.1373 7.5768 22.9548 7.9366 23.8064 8.11079L29.9524 9.46991C30.6478 9.83345 31.0921 10.5485 31.0921 11.3176V11.9882H31.0922Z" fill=""/>
    </symbol>

    <symbol id="glasses" viewBox="0 0 25 19" fill="" xmlns="http://www.w3.org/2000/svg">
        <path d="M23.8073 9.32524H23.6735C23.6717 9.32105 23.6705 9.31677 23.6687 9.31263L20.2805 1.5347C19.7454 0.306299 18.411 -0.293046 17.1767 0.140561L15.6644 0.671868C15.303 0.798851 15.1096 1.20451 15.2325 1.57793C15.3554 1.95136 15.748 2.15124 16.1093 2.02421L17.6217 1.4929C18.1777 1.29745 18.7789 1.56755 19.0201 2.121L22.1583 9.32524H15.7298C14.6792 9.32524 13.788 10.044 13.4924 11.0307H11.9132C11.6176 10.044 10.7264 9.32524 9.67579 9.32524H3.24732L6.38559 2.12105C6.62671 1.56755 7.22783 1.29759 7.78402 1.4929L9.29634 2.02421C9.65805 2.15119 10.0503 1.95131 10.1731 1.57793C10.296 1.20446 10.1027 0.798803 9.74126 0.671868L8.22893 0.140561C6.99464 -0.293189 5.66035 0.306252 5.12517 1.5347L1.73697 9.31263C1.73518 9.31682 1.73393 9.32105 1.73218 9.32524H1.59838C1.21668 9.32524 0.907227 9.64501 0.907227 10.0394V12.9918C0.907227 16.157 3.39923 18.7321 6.46236 18.7321C9.52544 18.7321 12.0174 16.157 12.0174 12.9918V12.459H13.3883V12.9918C13.3883 16.157 15.8803 18.7321 18.9434 18.7321H18.9434C22.0064 18.7321 24.4984 16.157 24.4984 12.9918V10.0394C24.4984 9.64501 24.189 9.32524 23.8073 9.32524ZM10.6351 12.9918C10.6351 15.3694 8.76319 17.3037 6.46231 17.3037H6.46227C4.16143 17.3037 2.28952 15.3694 2.28952 12.9918V10.7536H9.67583C10.2047 10.7536 10.6351 11.1983 10.6351 11.7449V12.9918ZM23.1161 12.9918C23.1161 15.3694 21.2442 17.3037 18.9433 17.3037C16.6424 17.3037 14.7705 15.3694 14.7705 12.9918V11.7449C14.7705 11.1983 15.2009 10.7536 15.7298 10.7536H23.1161V12.9918Z" fill=""/>
    </symbol>

    <symbol id="gloves" viewBox="0 0 29 26" fill="" xmlns="http://www.w3.org/2000/svg">
        <path d="M27.9523 6.81411C27.8254 6.32507 27.5219 5.9163 27.0976 5.66312C26.8548 5.51824 26.5892 5.43429 26.3176 5.41346C26.4502 5.047 26.4695 4.64806 26.3695 4.26258C26.2426 3.77354 25.9391 3.36477 25.5148 3.11159C25.2804 2.97171 25.0246 2.88858 24.7627 2.86429L24.774 2.84408C25.0189 2.40563 25.0841 1.89478 24.9573 1.40574C24.8304 0.916692 24.5268 0.507919 24.1025 0.254799C23.6783 0.00167899 23.184 -0.0656806 22.7106 0.0654123C22.2373 0.19645 21.8417 0.510117 21.5968 0.948558L21.5849 0.969821C21.4363 0.751095 21.2405 0.561543 21.0022 0.419352C20.1262 -0.103261 19.0022 0.207933 18.4964 1.11317L15.9828 5.61202C15.6492 5.1365 15.1076 4.82635 14.4971 4.82635C14.2119 4.82635 13.9417 4.89393 13.7007 5.01447C13.5549 4.11896 12.7992 3.43449 11.8917 3.43449C11.6165 3.43449 11.3553 3.49745 11.1207 3.61014V3.58558C11.1207 2.54041 10.2978 1.69006 9.28636 1.69006C8.2749 1.69006 7.45198 2.54041 7.45198 3.58558V3.61014C7.21745 3.49745 6.95623 3.43449 6.68102 3.43449C5.66956 3.43449 4.84665 4.28483 4.84665 5.33V12.915L4.24667 12.2533C3.4991 11.4288 2.23732 11.3815 1.43408 12.148C0.710272 12.8387 0.584684 13.9926 1.14212 14.8321C2.21068 16.4414 3.4295 17.957 4.76487 19.3369L4.84675 19.4216L4.8467 24.6149C4.8467 24.7606 4.90274 24.9004 5.00243 25.0034C5.10218 25.1065 5.23739 25.1644 5.3784 25.1644H14.4971C14.7907 25.1644 15.0288 24.9184 15.0288 24.6149V21.9471L17.2567 23.2763C17.3404 23.3263 17.4318 23.35 17.522 23.35C17.7057 23.35 17.8845 23.2515 17.983 23.0752L20.0433 19.3877C21.0642 18.6274 21.9881 17.7345 22.7907 16.7326C22.9779 16.4989 22.9464 16.1525 22.7202 15.959C22.494 15.7655 22.1588 15.7982 21.9716 16.0319C21.2035 16.9908 20.3158 17.8418 19.333 18.5616C19.2705 18.6074 19.2183 18.6666 19.18 18.7352L17.3279 22.05L15.0288 20.6784V20.3569C15.8933 18.3721 16.3315 16.2621 16.3315 14.083V7.18574L19.4173 1.66265C19.6299 1.28228 20.1023 1.15141 20.4705 1.37101C20.8375 1.58996 20.9645 2.07576 20.7548 2.45569L17.3144 8.6132C17.1675 8.87599 17.2547 9.21202 17.509 9.36372C17.7633 9.51547 18.0884 9.42542 18.2353 9.16263L22.5177 1.49804C22.7303 1.11762 23.2027 0.986798 23.5709 1.20646C23.7492 1.31288 23.8768 1.48463 23.9301 1.69017C23.9834 1.89571 23.956 2.11043 23.8531 2.29471L19.5707 9.95935C19.4238 10.2221 19.511 10.5582 19.7653 10.7099C20.0197 10.8617 20.3448 10.7716 20.4916 10.5088L23.9299 4.35488C24.0329 4.17061 24.1992 4.0388 24.3981 3.98369C24.5971 3.92859 24.8048 3.95688 24.9831 4.06325C25.1614 4.16967 25.289 4.34142 25.3423 4.54702C25.3956 4.75256 25.3683 4.96722 25.2653 5.15155L21.8269 11.3054C21.6801 11.5682 21.7672 11.9042 22.0215 12.0559C22.2759 12.2076 22.601 12.1176 22.7478 11.8548L25.5148 6.90257C25.6179 6.72027 25.7833 6.58984 25.9808 6.53511C26.1799 6.48001 26.3876 6.5083 26.5659 6.61467C26.7442 6.72109 26.8718 6.8929 26.9251 7.09844C26.9784 7.30398 26.951 7.51864 26.8481 7.70297L24.4825 11.9368C24.3357 12.1996 24.4228 12.5356 24.6772 12.6873C24.7609 12.7372 24.8523 12.761 24.9425 12.761C25.1262 12.761 25.3049 12.6625 25.4035 12.4862L27.769 8.2524C28.014 7.81396 28.0791 7.30315 27.9523 6.81411ZM15.2681 14.0829C15.2681 16.1429 14.8461 18.1366 14.0139 20.0085C13.9819 20.0805 13.9654 20.1587 13.9654 20.2378V24.0655H5.9101L5.91016 19.1939C5.91016 19.0482 5.85411 18.9084 5.75437 18.8054L5.51675 18.5599C4.22748 17.2276 3.05061 15.7643 2.019 14.2105C1.75836 13.8179 1.81701 13.2784 2.15549 12.9554C2.53119 12.597 3.12117 12.6191 3.4706 13.0046L4.98382 14.6735C5.08118 14.7848 5.22197 14.8547 5.37856 14.8547C5.59044 14.8547 5.78218 14.7246 5.86645 14.5238C5.89803 14.4484 5.91223 14.3685 5.91005 14.2896V5.33011C5.91005 4.89085 6.25592 4.53345 6.68102 4.53345C7.10611 4.53345 7.45198 4.89085 7.45198 5.33011V12.436C7.45198 12.7394 7.69008 12.9854 7.98369 12.9854C8.27734 12.9854 8.51539 12.7394 8.51539 12.436V3.58563C8.51539 3.14637 8.86126 2.78897 9.28636 2.78897C9.71145 2.78897 10.0573 3.14637 10.0573 3.58563V12.4359C10.0573 12.7394 10.2954 12.9854 10.589 12.9854C10.8827 12.9854 11.1207 12.7394 11.1207 12.4359V5.33006C11.1207 4.89079 11.4666 4.53339 11.8917 4.53339C12.3168 4.53339 12.6627 4.89079 12.6627 5.33006V12.4359C12.6627 12.7394 12.9008 12.9854 13.1944 12.9854C13.488 12.9854 13.7261 12.7394 13.7261 12.4359V6.72192C13.7261 6.28265 14.0719 5.92525 14.497 5.92525C14.9221 5.92525 15.268 6.28265 15.268 6.72192V14.0829H15.2681Z" fill=""/>
        <path d="M23.7465 13.8032C23.6062 13.8032 23.4695 13.8615 23.3707 13.9642C23.2713 14.0664 23.2148 14.2076 23.2148 14.3526C23.2148 14.4971 23.2712 14.6389 23.3707 14.7411C23.4695 14.8433 23.6062 14.9021 23.7465 14.9021C23.8864 14.9021 24.0236 14.8433 24.1225 14.7411C24.2214 14.6383 24.2782 14.4971 24.2782 14.3526C24.2782 14.2081 24.2214 14.0664 24.1225 13.9642C24.0236 13.8615 23.8864 13.8032 23.7465 13.8032Z" fill=""/>
    </symbol>

    <symbol id="briefcases" viewBox="0 0 30 25" fill="" xmlns="http://www.w3.org/2000/svg">
        <path d="M28.29 3.26669C28.2883 3.26669 28.2866 3.26648 28.2849 3.26648H20.8134V2.44986C20.8134 1.09903 19.7043 0 18.3412 0H11.7487C10.3856 0 9.27652 1.09903 9.27652 2.44986V3.26648H1.80502C1.34621 3.26648 0.980957 3.63906 0.980957 4.08309V22.0487C0.980957 23.3995 2.09001 24.4986 3.45314 24.4986H26.6368C27.9999 24.4986 29.1089 23.3995 29.1089 22.0487V4.10032C29.1089 4.09926 29.1089 4.09819 29.1089 4.09713C29.0774 3.5608 28.7446 3.26967 28.29 3.26669ZM10.9246 2.44986C10.9246 1.99965 11.2944 1.63324 11.7487 1.63324H18.3412C18.7955 1.63324 19.1653 1.99965 19.1653 2.44986V3.26648H10.9246V2.44986ZM27.1415 4.89971L24.5824 12.5075C24.4702 12.8415 24.156 13.0659 23.8008 13.0659H19.1653V12.2493C19.1653 11.7982 18.7964 11.4327 18.3412 11.4327H11.7487C11.2935 11.4327 10.9246 11.7982 10.9246 12.2493V13.0659H6.28908C5.93391 13.0659 5.61974 12.8415 5.5075 12.5075L2.94841 4.89971H27.1415ZM17.5171 13.0659V14.6991H12.5728V13.0659H17.5171ZM27.4608 22.0487C27.4608 22.4989 27.0911 22.8653 26.6368 22.8653H3.45314C2.99884 22.8653 2.62908 22.4989 2.62908 22.0487V9.1153L3.94393 13.024C4.28085 14.0261 5.22337 14.6991 6.28908 14.6991H10.9246V15.5158C10.9246 15.9668 11.2935 16.3324 11.7487 16.3324H18.3412C18.7964 16.3324 19.1653 15.9668 19.1653 15.5158V14.6991H23.8008C24.8665 14.6991 25.809 14.0261 26.146 13.024L27.4608 9.1153V22.0487Z" fill=""/>
    </symbol>

    <symbol id="belts"  viewBox="0 0 22 22" fill="" xmlns="http://www.w3.org/2000/svg">
        <path d="M21.9425 3.93891C21.9425 3.59704 21.8094 3.27558 21.5676 3.03387L18.9087 0.374879C18.6669 0.133168 18.3455 0 18.0036 0C17.6617 0 17.3403 0.133168 17.0985 0.374879L15.5338 1.93964C15.3677 2.10573 15.3677 2.37504 15.5338 2.54117C15.6999 2.70722 15.9692 2.70722 16.1353 2.54117L17.7001 0.976413C17.7811 0.895304 17.8889 0.850645 18.0036 0.850645C18.1183 0.850645 18.2261 0.895304 18.3072 0.976413L20.9662 3.6354C21.0472 3.71647 21.0919 3.82424 21.0919 3.93891C21.0919 4.05358 21.0472 4.16135 20.9661 4.24246L15.0615 10.1471L11.7954 6.88103L13.4158 5.2606C13.5819 5.09451 13.5819 4.8252 13.4158 4.65907C13.2497 4.49302 12.9804 4.49302 12.8143 4.65907L11.1459 6.32748C10.9579 6.23229 10.749 6.18159 10.5322 6.18159C10.1687 6.18159 9.82687 6.32318 9.56985 6.58025L6.66915 9.48095C6.41209 9.73801 6.2705 10.0798 6.2705 10.4434C6.2705 10.6602 6.3212 10.869 6.41634 11.057L0.540895 16.9325C0.299142 17.1743 0.166016 17.4957 0.166016 17.8376C0.166016 18.1795 0.299142 18.5009 0.540895 18.7426L3.19988 21.4016C3.44164 21.6433 3.76305 21.7765 4.10493 21.7765C4.4468 21.7765 4.76826 21.6433 5.01001 21.4016L10.8855 15.5261C11.0735 15.6212 11.2824 15.672 11.4992 15.672C11.8627 15.672 12.2045 15.5304 12.4616 15.2734L15.3623 12.3727C15.6194 12.1156 15.761 11.7739 15.761 11.4103C15.761 11.1935 15.7103 10.9846 15.6151 10.7966L21.5676 4.844C21.8094 4.60224 21.9425 4.28078 21.9425 3.93891ZM5.51959 13.1568L8.78564 16.4229L7.87809 17.3305L4.61986 17.3295L4.61234 14.0641L5.51959 13.1568ZM9.38717 15.8214L6.12108 12.5553L6.96985 11.7065L10.236 14.9726L9.38717 15.8214ZM4.40852 20.8001C4.32741 20.8812 4.21964 20.9259 4.10493 20.9259C3.99026 20.9259 3.88244 20.8812 3.80137 20.8001L1.14239 18.1411C1.06132 18.06 1.01666 17.9523 1.01666 17.8376C1.01666 17.7229 1.06132 17.6152 1.14243 17.534L3.76369 14.9127L3.77024 17.7557C3.77079 17.9902 3.96095 18.1799 4.19543 18.18L7.02774 18.1809L4.40852 20.8001ZM14.7608 11.7712L11.86 14.6718C11.7637 14.7683 11.6355 14.8213 11.4992 14.8213C11.363 14.8213 11.2349 14.7683 11.1386 14.6721C11.1385 14.672 11.1384 14.6719 11.1383 14.6718C11.1381 14.6716 11.1379 14.6714 11.1377 14.6712L7.27069 10.8043C7.17426 10.7078 7.12118 10.5797 7.12118 10.4434C7.12118 10.307 7.17431 10.1789 7.27069 10.0825L10.1714 7.18174C10.2678 7.08536 10.396 7.03224 10.5323 7.03224C10.6686 7.03224 10.7968 7.08536 10.8932 7.18178L12.5262 8.81485L11.8045 9.53662L10.8331 8.56523C10.7533 8.48548 10.6451 8.44065 10.5323 8.44065C10.4195 8.44065 10.3113 8.48548 10.2316 8.56523L8.65417 10.1427C8.48809 10.3088 8.48809 10.5781 8.65417 10.7442L11.1985 13.2885C11.2816 13.3715 11.3904 13.4131 11.4992 13.4131C11.6081 13.4131 11.717 13.3715 11.8 13.2885L13.3774 11.7111C13.4571 11.6313 13.502 11.5231 13.502 11.4103C13.502 11.2975 13.4571 11.1894 13.3774 11.1096L12.4059 10.1382L13.1277 9.41638L14.7606 11.0492L14.7608 11.0494C14.7608 11.0495 14.7609 11.0495 14.7609 11.0495C14.8572 11.1459 14.9103 11.2741 14.9103 11.4103C14.9103 11.5466 14.8572 11.6748 14.7608 11.7712ZM11.1583 10.7842C11.2414 10.8672 11.3502 10.9088 11.459 10.9088C11.5679 10.9088 11.6768 10.8672 11.7598 10.7842L11.8044 10.7396L12.4751 11.4103L11.4992 12.3862L9.55637 10.4434L10.5323 9.46746L11.2029 10.1381L11.1583 10.1827C10.9922 10.3488 10.9922 10.6181 11.1583 10.7842Z" fill=""/>
        <path d="M15.083 8.23112C15.4327 8.23112 15.7823 8.09804 16.0485 7.83187C16.5809 7.29945 16.5809 6.43324 16.0485 5.90086C15.7906 5.64299 15.4477 5.50098 15.083 5.50098C14.7183 5.50098 14.3754 5.64299 14.1175 5.90086C13.5852 6.43328 13.5852 7.29949 14.1175 7.83187C14.3838 8.09804 14.7334 8.23112 15.083 8.23112ZM14.719 6.50235C14.8163 6.40513 14.9455 6.35158 15.083 6.35158C15.2205 6.35158 15.3498 6.40513 15.447 6.50235C15.6477 6.70306 15.6477 7.02963 15.447 7.23034C15.2463 7.431 14.9198 7.43109 14.719 7.23034C14.5183 7.02967 14.5183 6.70306 14.719 6.50235Z" fill=""/>
        <path d="M17.7414 5.57302C18.1061 5.57302 18.449 5.43101 18.7069 5.17314C18.9647 4.91526 19.1068 4.57237 19.1068 4.20765C19.1068 3.84298 18.9648 3.50005 18.7069 3.24217C18.449 2.9843 18.1061 2.84229 17.7414 2.84229C17.3766 2.84229 17.0338 2.9843 16.7759 3.24217C16.518 3.50005 16.376 3.84298 16.376 4.20765C16.376 4.57237 16.518 4.91531 16.7759 5.17314C17.0338 5.43101 17.3767 5.57302 17.7414 5.57302ZM17.3774 3.84366C17.4746 3.74644 17.6039 3.69289 17.7414 3.69289C17.8789 3.69289 18.0082 3.74644 18.1054 3.84366C18.2026 3.94089 18.2562 4.07015 18.2562 4.20765C18.2562 4.34516 18.2026 4.47437 18.1054 4.57165C18.0082 4.66887 17.8789 4.72242 17.7414 4.72242C17.6039 4.72242 17.4746 4.66887 17.3774 4.57165C17.2802 4.47442 17.2266 4.3452 17.2266 4.20765C17.2266 4.07015 17.2802 3.94089 17.3774 3.84366Z" fill=""/>
        <path d="M14.4746 4.02539C14.5865 4.02539 14.6962 3.97992 14.7753 3.90038C14.8544 3.82127 14.9 3.71154 14.9 3.60006C14.9 3.48778 14.8544 3.37847 14.7753 3.29894C14.6962 3.21987 14.5865 3.17432 14.4746 3.17432C14.3628 3.17432 14.253 3.21983 14.1739 3.29894C14.0948 3.37805 14.0493 3.48778 14.0493 3.60006C14.0493 3.71197 14.0948 3.82123 14.1739 3.90038C14.253 3.97992 14.3628 4.02539 14.4746 4.02539Z" fill=""/>
    </symbol>

    <symbol id="backpacks" viewBox="0 0 21 24" fill="" xmlns="http://www.w3.org/2000/svg">
        <path d="M14.9682 13.363H12.7299C12.4755 13.363 12.2691 13.5693 12.2691 13.8238C12.2691 14.0783 12.4755 14.2846 12.7299 14.2846H14.9682C15.2222 14.2846 15.4289 14.4913 15.4289 14.7453V15.6668C15.4289 15.957 15.0712 16.0884 14.858 16.1409L11.6048 16.9419C11.3009 17.0161 11.0084 17.0492 10.6564 17.0492C10.3043 17.0492 10.0118 17.0161 9.70889 16.9422L6.45482 16.1409C6.24163 16.0885 5.88393 15.9571 5.88393 15.6668V14.7453C5.88393 14.4913 6.09063 14.2846 6.3447 14.2846H8.58296C8.83744 14.2846 9.04373 14.0783 9.04373 13.8238C9.04373 13.5693 8.83744 13.363 8.58296 13.363H6.3447C5.5825 13.363 4.9624 13.9831 4.9624 14.7453V15.6668V20.1283C4.9624 20.6365 5.3758 21.0499 5.88393 21.0499H15.4289C15.937 21.0499 16.3504 20.6365 16.3504 20.1283V15.6668V14.7453C16.3504 13.9831 15.7304 13.363 14.9682 13.363ZM5.88398 20.1283V16.9207C5.99254 16.9664 6.10957 17.005 6.23453 17.0357L9.48952 17.8372C9.86274 17.9283 10.2335 17.9706 10.6564 17.9706C11.0793 17.9706 11.45 17.9283 11.8242 17.8369L15.0783 17.0357C15.2032 17.0049 15.3203 16.9664 15.4289 16.9207L15.4289 20.1283L5.88398 20.1283Z" fill=""/>
        <path d="M19.4807 15.2087V6.45069C19.4807 4.67224 18.0338 3.22535 16.2554 3.22535H13.8659C13.461 2.99953 13.0345 2.81835 12.5923 2.6833V1.38229C12.5923 0.620096 11.9722 0 11.21 0H10.1041C9.34189 0 8.72179 0.620096 8.72179 1.38229V2.6833C8.27955 2.81835 7.85307 2.99957 7.44824 3.22535H5.05872C3.28026 3.22535 1.83337 4.67224 1.83337 6.45069V15.2087C1.35754 15.2443 0.980957 15.6419 0.980957 16.1267V21.2873C0.980957 22.5577 2.01445 23.5912 3.28478 23.5912H6.04936H15.2646H18.0292C19.2995 23.5912 20.333 22.5577 20.333 21.2873V16.1267C20.3331 15.6419 19.9566 15.2443 19.4807 15.2087ZM16.2554 4.14687C17.5257 4.14687 18.5591 5.18037 18.5591 6.45069V15.2052H18.0616L17.5669 9.26923C17.4142 7.43696 16.6679 5.73222 15.4653 4.46913C15.3588 4.35735 15.2491 4.25018 15.1368 4.14687H16.2554ZM15.2647 22.6697H6.04941C5.38904 22.6697 4.72757 22.3793 4.27993 21.8928C3.88967 21.4686 3.69933 20.94 3.74402 20.4041L4.66555 9.34581C4.837 7.28799 5.89975 5.21276 7.7165 4.11508C7.7628 4.09702 7.80556 4.072 7.84316 4.04081C8.64424 3.58557 9.58591 3.31759 10.657 3.31759C11.7282 3.31759 12.6699 3.58557 13.471 4.04085C13.5086 4.07205 13.5513 4.09697 13.5976 4.11504C15.4144 5.21271 16.4771 7.28795 16.6485 9.34577L17.5701 20.4041C17.6148 20.9399 17.4244 21.4686 17.0342 21.8927C16.5866 22.3792 15.9251 22.6697 15.2647 22.6697ZM9.64332 1.38229C9.64332 1.12823 9.85002 0.921528 10.1041 0.921528H11.21C11.4641 0.921528 11.6707 1.12823 11.6707 1.38229V2.47283C11.3384 2.42191 10.9999 2.39602 10.657 2.39602C10.3142 2.39602 9.97562 2.42191 9.64332 2.47283V1.38229ZM5.05872 4.14687H6.17731C6.06498 4.25018 5.95527 4.35735 5.84884 4.46913C4.64624 5.73222 3.8999 7.43696 3.7472 9.26923L3.25252 15.2052H2.7549V6.45069C2.7549 5.18037 3.78839 4.14687 5.05872 4.14687ZM3.28482 22.6697C2.52263 22.6697 1.90253 22.0496 1.90253 21.2874V16.1267H3.17576L2.82567 20.3276C2.75937 21.1233 3.035 21.9007 3.60178 22.5167C3.65053 22.5696 3.70135 22.6202 3.75314 22.6696H3.28482V22.6697ZM19.4116 21.2874C19.4116 22.0496 18.7915 22.6697 18.0293 22.6697H17.5609C17.6127 22.6202 17.6636 22.5697 17.7123 22.5167C18.2791 21.9007 18.5547 21.1233 18.4884 20.3276L18.1383 16.1267H19.4116V21.2874Z" fill=""/>
        <path d="M10.0038 10.8019C10.1775 10.9756 10.4089 11.0713 10.6554 11.0713C10.9019 11.0713 11.1334 10.9756 11.307 10.8019L12.6103 9.49863C12.9696 9.13937 12.9696 8.55475 12.6103 8.1954L11.307 6.89217C11.1333 6.71846 10.9019 6.6228 10.6554 6.6228C10.4089 6.6228 10.1775 6.71846 10.0038 6.89217L8.70052 8.19544C8.52681 8.36915 8.43115 8.60055 8.43115 8.84706C8.43115 9.09361 8.52681 9.32501 8.70052 9.49867L10.0038 10.8019ZM10.6554 7.54378L11.9587 8.84701L10.6555 10.1503L9.35208 8.8471L10.6554 7.54378Z" fill=""/>
        <path d="M10.6564 13.363C10.4019 13.363 10.1958 13.5693 10.1958 13.8238C10.1958 14.0783 10.4022 14.2846 10.6567 14.2846C10.9111 14.2846 11.1175 14.0783 11.1175 13.8238C11.1175 13.5693 10.9111 13.363 10.6567 13.363H10.6564Z" fill=""/>
    </symbol>

    <symbol id="sandals" viewBox="0 0 29 20" fill="" xmlns="http://www.w3.org/2000/svg">
        <path d="M28.2812 15.5247H25.6998L27.2723 12.4556C27.3449 12.3139 27.3524 12.1475 27.2928 11.9997C27.2333 11.8519 27.1125 11.7373 26.9618 11.6855L21.0009 9.74135L2.05135 0.0601044C1.88105 -0.0268616 1.67772 -0.0190056 1.51461 0.0807609C1.35145 0.180582 1.25201 0.358085 1.25201 0.549322V3.84288C1.25201 4.04752 1.36573 4.23519 1.54714 4.3299L9.42879 8.4445C9.06599 9.13001 8.59545 9.76184 8.02706 10.3175L7.48362 10.8488C7.47775 10.8546 7.47203 10.8604 7.46643 10.8664L6.91782 11.453L5.27904 10.5569C5.19823 10.5127 5.10758 10.4895 5.01545 10.4895H1.25201C0.948592 10.4895 0.702637 10.7355 0.702637 11.0389V19.1056C0.702637 19.409 0.948592 19.6549 1.25201 19.6549H11.7378C12.0412 19.6549 12.2871 19.409 12.2871 19.1056C12.2871 18.8021 12.0412 18.5562 11.7378 18.5562H1.80139V11.5883H4.87514L13.9601 16.5561C14.041 16.6003 14.1316 16.6235 14.2237 16.6235H27.7319V17.4671C27.7319 18.3672 26.5453 18.5562 25.5499 18.5562H16.7048C16.4014 18.5562 16.1554 18.8021 16.1554 19.1056C16.1554 19.409 16.4014 19.6549 16.7048 19.6549H25.5499C28.5109 19.6549 28.8306 18.1249 28.8306 17.4671V16.0741C28.8306 15.7707 28.5846 15.5247 28.2812 15.5247ZM15.3459 8.08614L19.9717 10.4494L18.7902 12.0822L14.8835 9.99593C15.1093 9.38173 15.2645 8.74209 15.3459 8.08614ZM2.35076 3.50996V1.44689L10.2799 5.49792C10.2284 6.16563 10.0901 6.8162 9.87104 7.4359L2.35076 3.50996ZM7.91752 11.9928L8.2606 11.626L8.7952 11.1032C10.1974 9.73229 11.0798 7.9566 11.3289 6.0339L14.2947 7.54913C14.1904 9.01876 13.6666 10.4085 12.7692 11.5875L12.3089 12.1923C12.3077 12.194 12.3064 12.1957 12.3052 12.1973L11.1418 13.7628L10.1259 13.2072L7.91752 11.9928ZM12.1152 14.295L13.1851 12.8553L13.6435 12.2529C13.9456 11.856 14.2108 11.4383 14.4376 11.0034L18.1401 12.9807L16.2992 15.5248H14.3641L12.1152 14.295ZM21.0064 10.8938L23.213 11.5807L20.9302 15.5247H17.6555L21.0064 10.8938ZM22.1998 15.5247L24.2821 11.927L26.0053 12.5188L24.4653 15.5247H22.1998Z" fill=""/>
    </symbol>

    <symbol id="slates" viewBox="0 0 39 13" fill="" xmlns="http://www.w3.org/2000/svg">
        <path d="M38.0305 8.49735L37.759 7.58456C37.4457 6.53139 36.4954 6.04908 35.3937 6.38441C34.1984 6.74836 33.1289 7.0424 32.1347 7.27737C32.1924 6.97672 32.2243 6.67284 32.2035 6.36749C32.1484 5.55814 31.7179 4.923 30.9587 4.53067C30.0346 4.05328 24.2869 1.19398 22.7403 0.454393C21.6641 -0.0599966 20.7032 -0.138063 19.8842 0.222271C19.096 0.569223 18.5129 1.29458 18.1513 2.37843C17.6509 3.87784 16.8317 6.25059 16.4618 7.31913C16.3148 7.29929 16.1666 7.27921 16.0161 7.2586C14.5656 7.05963 13.2849 6.89842 12.1008 6.76582C11.6924 6.71952 11.325 7.02517 11.2806 7.4475C11.2362 7.86982 11.5317 8.24931 11.9403 8.29507C13.1124 8.42636 14.3815 8.58611 15.8202 8.78354C21.2271 9.52521 24.4664 9.74241 27.3741 9.55843C29.9399 9.396 32.3851 8.90383 35.8143 7.8599C36.2446 7.72915 36.2951 7.89959 36.3359 8.03642L36.6074 8.94921C36.6293 9.02274 36.6222 9.09504 36.5865 9.16403C36.5453 9.2434 36.482 9.28716 36.4495 9.29709C32.7924 10.4209 30.1878 10.9497 27.4595 11.1224C24.465 11.3118 21.1477 11.0908 15.6279 10.3337C13.4052 10.0288 11.3784 9.78556 9.60388 9.61073C9.39502 9.58989 9.18766 9.6615 9.03254 9.80732C8.87743 9.95315 8.78893 10.1597 8.78893 10.3764L8.789 11.1804C8.78833 11.1821 8.78535 11.1852 8.78372 11.1857L1.49361 11.1858C1.49198 11.1851 1.489 11.1821 1.48848 11.1804V7.7373C2.77502 7.71931 4.02718 7.73384 5.31455 7.78199C5.7263 7.79691 6.07047 7.46565 6.08528 7.04117C6.10009 6.61669 5.77915 6.26012 5.36836 6.24482C4.03663 6.19498 2.7416 6.18029 1.4098 6.20006C0.645096 6.20375 0 6.86212 0 7.64101V11.1805C0 12.0316 0.670105 12.7241 1.49384 12.7241H8.78394C9.59308 12.7241 10.254 12.0559 10.2771 11.2254C11.8314 11.3896 13.5612 11.6021 15.4322 11.8587C19.7862 12.456 22.8058 12.7251 25.3854 12.725C26.1372 12.725 26.8516 12.7021 27.5507 12.6579C30.3997 12.4776 33.1009 11.9311 36.874 10.7716C37.3034 10.6397 37.677 10.3185 37.8989 9.89046C38.1226 9.45883 38.1694 8.96405 38.0305 8.49735ZM27.2833 8.02311C24.8428 8.17755 22.1329 8.03511 17.9747 7.51595C18.3806 6.34227 19.1015 4.25002 19.5587 2.87998C19.7774 2.22476 20.0831 1.80682 20.4676 1.63754C20.9849 1.40988 21.6491 1.62777 22.1152 1.85058C23.6028 2.56195 29.3988 5.44462 30.293 5.90663C30.793 6.16498 30.8377 6.44725 30.5143 7.62063C29.3971 7.82729 28.3493 7.95566 27.2833 8.02311Z" fill=""/>
        <path d="M8.68606 7.97841C9.09695 7.97841 9.43001 7.63416 9.43001 7.20966C9.43001 6.78516 9.09695 6.44092 8.68606 6.44092H8.68554C8.27466 6.44092 7.94189 6.78516 7.94189 7.20966C7.94189 7.63416 8.27518 7.97841 8.68606 7.97841Z" fill=""/>
    </symbol>

    <symbol id="handbags" viewBox="0 0 29 20" fill="" xmlns="http://www.w3.org/2000/svg">
        <path d="M25.3811 0.000244141H16.3595C16.0561 0.000244141 15.8101 0.246199 15.8101 0.549619C15.8101 0.853038 16.0561 1.09899 16.3595 1.09899H21.0411C21.0411 1.40241 21.287 1.64837 21.5904 1.64837C21.8938 1.64837 22.1398 1.40241 22.1398 1.09899H25.3811C26.2899 1.09899 27.0292 1.83834 27.0292 2.74712V6.66289C25.6551 6.92138 24.612 8.12962 24.612 9.57771V10.0538H23.7652C22.3172 10.0538 21.109 11.097 20.8505 12.471H18.1363V10.3834C18.1363 10.08 17.8904 9.83405 17.587 9.83405H10.555C10.2516 9.83405 10.0056 10.08 10.0056 10.3834V12.471H7.29147C7.03299 11.097 5.82475 10.0538 4.37665 10.0538H3.52995V9.57766C3.52995 8.12473 2.47977 6.91325 1.09875 6.66037V2.74712C1.09875 1.83834 1.8381 1.09899 2.74687 1.09899H5.98818V1.20887C5.98818 1.51229 6.23414 1.75824 6.53756 1.75824C6.84098 1.75824 7.08693 1.51229 7.08693 1.20887V1.09899H11.4151C11.7185 1.09899 11.9645 0.853038 11.9645 0.549619C11.9645 0.246199 11.7185 0.000244141 11.4151 0.000244141H2.74687C1.23225 0.000244141 0 1.23249 0 2.74712V16.3716C0 17.8862 1.23225 19.1185 2.74687 19.1185H25.3811C26.8957 19.1185 28.128 17.8862 28.128 16.3716V2.74712C28.128 1.23249 26.8957 0.000244141 25.3811 0.000244141ZM23.7652 11.1525H25.1614C25.4648 11.1525 25.7107 10.9066 25.7107 10.6032V9.57766C25.7107 8.73882 26.2666 8.02749 27.0292 7.79235V10.8229C27.0292 11.7317 26.2899 12.471 25.3811 12.471H21.9799C22.2151 11.7084 22.9264 11.1525 23.7652 11.1525ZM11.1043 10.9328H17.0376V12.471H14.071H14.057H11.1043V10.9328ZM2.4312 9.57766V10.6032C2.4312 10.9066 2.67716 11.1525 2.98058 11.1525H4.3767C5.21549 11.1525 5.92687 11.7084 6.16201 12.471H2.74687C1.8381 12.471 1.09875 11.7317 1.09875 10.8229V7.7884C1.86853 8.01919 2.4312 8.73382 2.4312 9.57766ZM25.3811 18.0197H2.74687C1.8381 18.0197 1.09875 17.2804 1.09875 16.3716V13.0189C1.55819 13.3646 2.12899 13.5698 2.74687 13.5698H25.3811C25.999 13.5698 26.5698 13.3646 27.0292 13.0189V16.3716C27.0292 17.2804 26.2899 18.0197 25.3811 18.0197Z" fill=""/>
        <path d="M12.3604 7.25207H12.9098C13.2132 7.25207 13.4592 7.00611 13.4592 6.7027C13.4592 6.39928 13.2132 6.15332 12.9098 6.15332H12.3604C12.057 6.15332 11.811 6.39928 11.811 6.7027C11.811 7.00611 12.057 7.25207 12.3604 7.25207Z" fill=""/>
        <path d="M15.3262 7.25207H15.8756C16.179 7.25207 16.425 7.00611 16.425 6.7027C16.425 6.39928 16.179 6.15332 15.8756 6.15332H15.3262C15.0228 6.15332 14.7769 6.39928 14.7769 6.7027C14.7769 7.00611 15.0228 7.25207 15.3262 7.25207Z" fill=""/>
        <path d="M21.5894 4.61517C21.8928 4.61517 22.1388 4.36921 22.1388 4.06579V3.51642C22.1388 3.213 21.8928 2.96704 21.5894 2.96704C21.286 2.96704 21.04 3.213 21.04 3.51642V4.06579C21.04 4.36921 21.286 4.61517 21.5894 4.61517Z" fill=""/>
        <path d="M18.8429 7.25207C19.1463 7.25207 19.3923 7.00611 19.3923 6.7027C19.3923 6.39928 19.1463 6.15332 18.8429 6.15332H18.2935C17.9901 6.15332 17.7441 6.39928 17.7441 6.7027C17.7441 7.00611 17.9901 7.25207 18.2935 7.25207H18.8429Z" fill=""/>
        <path d="M20.7109 6.70223C20.7109 7.00565 20.9569 7.2516 21.2603 7.2516H21.5899C21.8934 7.2516 22.1393 7.00565 22.1393 6.70223V6.48248C22.1393 6.17906 21.8934 5.93311 21.5899 5.93311C21.4045 5.93311 21.2404 6.02507 21.1409 6.16588C20.8949 6.22037 20.7109 6.43985 20.7109 6.70223Z" fill=""/>
        <path d="M5.98779 6.70197C5.98779 7.00539 6.23375 7.25135 6.53717 7.25135H6.97667C7.28009 7.25135 7.52604 7.00539 7.52604 6.70197C7.52604 6.39855 7.28009 6.1526 6.97667 6.1526H6.86685C6.77505 6.0836 6.66089 6.04272 6.53717 6.04272C6.23375 6.04272 5.98779 6.28868 5.98779 6.5921V6.70197Z" fill=""/>
        <path d="M9.39361 6.15332C9.09019 6.15332 8.84424 6.39928 8.84424 6.7027C8.84424 7.00611 9.09019 7.25207 9.39361 7.25207H9.94299C10.2464 7.25207 10.4924 7.00611 10.4924 6.7027C10.4924 6.39928 10.2464 6.15332 9.94299 6.15332H9.39361Z" fill=""/>
        <path d="M6.53717 4.72478C6.84059 4.72478 7.08654 4.47883 7.08654 4.17541V3.62603C7.08654 3.32262 6.84059 3.07666 6.53717 3.07666C6.23375 3.07666 5.98779 3.32262 5.98779 3.62603V4.17541C5.98779 4.47883 6.23375 4.72478 6.53717 4.72478Z" fill=""/>
        <path d="M13.8868 1.09875C14.0318 1.09875 14.173 1.03997 14.2752 0.937783C14.3779 0.835599 14.4362 0.69386 14.4362 0.549375C14.4362 0.404889 14.3779 0.263151 14.2752 0.160967C14.173 0.0587831 14.0318 0 13.8868 0C13.7423 0 13.6006 0.0587831 13.4984 0.160967C13.3962 0.263151 13.3374 0.404889 13.3374 0.549375C13.3374 0.69386 13.3962 0.835599 13.4984 0.937783C13.6006 1.03997 13.7423 1.09875 13.8868 1.09875Z" fill=""/>
    </symbol>

    <symbol id="umbrellas" viewBox="0 0 23 21" fill="" xmlns="http://www.w3.org/2000/svg">
        <path d="M12.1977 0.997969V0.652161C12.1977 0.292005 11.893 0 11.5172 0C11.1413 0 10.8366 0.292005 10.8366 0.652161V0.997969C5.34709 1.3055 0.628906 5.36533 0.628906 10.7607C0.628906 11.2331 1.13942 11.5511 1.59103 11.3544C4.64842 10.0226 6.63297 11.5948 6.91934 11.8439C7.15526 12.1079 7.57229 12.1465 7.8559 11.9255C7.91077 11.8829 7.91961 11.8613 8.06597 11.7523C8.68681 11.2904 9.65612 10.8989 10.8366 10.7915V18.5866C10.8366 19.8452 11.9051 20.8691 13.2184 20.8691C14.5318 20.8691 15.6003 19.8452 15.6003 18.5866C15.6003 18.2264 15.2956 17.9344 14.9197 17.9344C14.5439 17.9344 14.2392 18.2264 14.2392 18.5866C14.2392 19.126 13.7813 19.5648 13.2184 19.5648C12.6556 19.5648 12.1977 19.126 12.1977 18.5866V10.7916C13.3889 10.8999 14.3677 11.2986 14.9845 11.7645C15.1159 11.8639 15.1203 11.8795 15.1711 11.9203C15.4792 12.1565 15.8864 12.099 16.1143 11.8447C16.4089 11.5889 18.3918 10.0251 21.4433 11.3544C21.8921 11.5499 22.4054 11.2361 22.4054 10.7607C22.4054 5.36463 17.6864 1.30546 12.1977 0.997969ZM8.14159 10.1829C8.30512 6.56571 9.18133 4.62256 9.92811 3.61008C10.5981 2.70162 11.2518 2.39865 11.5179 2.30714C11.7637 2.39306 12.3772 2.675 13.0143 3.48906C13.8011 4.49449 14.7248 6.45521 14.8928 10.1829C12.8726 9.20725 10.1514 9.21662 8.14159 10.1829ZM2.05093 9.79819C2.49501 6.31557 5.31991 3.4666 9.03766 2.57412C7.37984 4.58074 6.88646 7.63301 6.77907 10.1896C5.3069 9.44284 3.64997 9.34204 2.05093 9.79819ZM16.2552 10.1896C16.1478 7.63187 15.6542 4.58053 13.9967 2.57412C17.7144 3.4666 20.5393 6.31561 20.9834 9.79819C19.3852 9.3422 17.7278 9.4426 16.2552 10.1896Z" fill=""/>
    </symbol>

    <symbol id="switching-little" viewBox="0 0 20 19" fill="none" xmlns="http://www.w3.org/2000/svg">
        <path fill-rule="evenodd" clip-rule="evenodd" d="M3.47365 9.70654H2.28156C1.60837 9.71071 1.06365 10.2668 1.05957 10.954V12.1709C1.06367 12.8575 1.60898 13.4125 2.28156 13.4146H3.47365C3.7974 13.4156 4.10823 13.285 4.3375 13.0517C4.56678 12.8183 4.69564 12.5014 4.69564 12.1709V10.954C4.69359 10.2659 4.14769 9.70864 3.47365 9.70654ZM4.03806 12.1709C4.04005 12.3254 3.9816 12.4743 3.87567 12.5846C3.76974 12.6948 3.62508 12.7574 3.47378 12.7584H2.28168C2.12813 12.7616 1.97995 12.7007 1.87135 12.5898C1.76275 12.479 1.70311 12.3277 1.70619 12.1709V10.954C1.70616 10.7992 1.76715 10.6509 1.87541 10.5426C1.98367 10.4342 2.13009 10.3749 2.28168 10.378H3.47378C3.78457 10.38 4.03602 10.6367 4.03806 10.954V12.1709ZM9.10901 10.954V12.1671C9.113 12.497 8.98846 12.8149 8.76279 13.051C8.53712 13.2871 8.22882 13.422 7.90571 13.426H7.41243C7.24532 13.4078 7.11858 13.2638 7.11858 13.0922C7.11858 12.9207 7.24532 12.7767 7.41243 12.7584H7.89076C8.04207 12.7574 8.18672 12.6949 8.29266 12.5846C8.39859 12.4743 8.45704 12.3254 8.45504 12.171V10.954C8.45102 10.6376 8.20072 10.3821 7.89076 10.378H6.69867C6.38703 10.378 6.13439 10.6359 6.13439 10.954V12.7737C6.1283 12.9582 5.9789 13.104 5.79806 13.1018C5.71116 13.0998 5.62866 13.0624 5.56897 12.9979C5.50929 12.9334 5.4774 12.8471 5.48042 12.7584V10.954C5.47943 10.6235 5.60734 10.3062 5.83591 10.0722C6.06449 9.83811 6.37492 9.70656 6.69867 9.70656H7.89076C8.55835 9.72274 9.09521 10.2725 9.10901 10.954ZM6.69872 14.0518H7.89081C8.5634 14.0538 9.1087 14.6088 9.1128 15.2954V16.5123C9.10872 17.1996 8.564 17.7556 7.89081 17.7598H6.69872C6.02615 17.7556 5.48251 17.1989 5.48047 16.5123V15.2954C5.48047 14.6086 6.0259 14.0518 6.69872 14.0518ZM8.29091 16.9208C8.39695 16.8125 8.45608 16.6654 8.45508 16.5123V15.2954C8.45508 15.1426 8.39563 14.9961 8.28981 14.888C8.18398 14.78 8.04045 14.7193 7.8908 14.7193H6.6987C6.38706 14.7193 6.13442 14.9772 6.13442 15.2954V16.5123C6.13342 16.6654 6.19255 16.8125 6.29859 16.9208C6.40463 17.029 6.54874 17.0894 6.6987 17.0884H7.8908C8.04076 17.0894 8.18487 17.029 8.29091 16.9208ZM1.05959 16.5085V15.2953C1.05959 14.9648 1.18845 14.6479 1.41773 14.4146C1.647 14.1812 1.95783 14.0507 2.28158 14.0517H2.77112C2.89629 14.038 3.01812 14.0985 3.0849 14.2074C3.15167 14.3163 3.15167 14.4546 3.0849 14.5636C3.01812 14.6725 2.89629 14.733 2.77112 14.7193H2.28158C1.96932 14.7193 1.71561 14.9766 1.71356 15.2953V16.497C1.7215 16.8132 1.97179 17.067 2.28158 17.0731H3.48115C3.63145 17.0741 3.77594 17.0138 3.88257 16.9057C3.9892 16.7975 4.04917 16.6504 4.04917 16.497V14.6926C4.02479 14.5578 4.08309 14.4215 4.19645 14.3481C4.30982 14.2747 4.45549 14.2791 4.56449 14.359C4.67348 14.439 4.72392 14.5786 4.69192 14.7117V16.5085C4.69192 17.1974 4.14482 17.7559 3.46993 17.7559H2.28158C1.61253 17.7417 1.07347 17.1915 1.05959 16.5085Z" fill="#200E32"/>
        <path fill-rule="evenodd" clip-rule="evenodd" d="M12.6284 9.70654H11.4363C10.7632 9.71071 10.2184 10.2668 10.2144 10.954V12.1709C10.2185 12.8575 10.7638 13.4125 11.4363 13.4146H12.6284C12.9522 13.4156 13.263 13.285 13.4923 13.0517C13.7216 12.8183 13.8504 12.5014 13.8504 12.1709V10.954C13.8484 10.2659 13.3025 9.70864 12.6284 9.70654ZM13.1928 12.1709C13.1948 12.3254 13.1364 12.4743 13.0305 12.5846C12.9245 12.6948 12.7799 12.7574 12.6286 12.7584H11.4365C11.2829 12.7616 11.1347 12.7007 11.0261 12.5898C10.9175 12.479 10.8579 12.3277 10.861 12.1709V10.954C10.8609 10.7992 10.9219 10.6509 11.0302 10.5426C11.1385 10.4342 11.2849 10.3749 11.4365 10.378H12.6286C12.9394 10.38 13.1908 10.6367 13.1928 10.954V12.1709ZM18.2638 10.954V12.1671C18.2678 12.497 18.1432 12.8149 17.9176 13.051C17.6919 13.2871 17.3836 13.422 17.0605 13.426H16.5672C16.4001 13.4078 16.2734 13.2638 16.2734 13.0922C16.2734 12.9207 16.4001 12.7767 16.5672 12.7584H17.0455C17.1969 12.7574 17.3415 12.6949 17.4474 12.5846C17.5534 12.4743 17.6118 12.3254 17.6098 12.171V10.954C17.6058 10.6376 17.3555 10.3821 17.0455 10.378H15.8535C15.5418 10.378 15.2892 10.6359 15.2892 10.954V12.7737C15.2831 12.9582 15.1337 13.104 14.9528 13.1018C14.8659 13.0998 14.7834 13.0624 14.7238 12.9979C14.6641 12.9334 14.6322 12.8471 14.6352 12.7584V10.954C14.6342 10.6235 14.7621 10.3062 14.9907 10.0722C15.2193 9.83811 15.5297 9.70656 15.8535 9.70656H17.0455C17.7131 9.72274 18.25 10.2725 18.2638 10.954ZM15.8535 14.0518H17.0456C17.7182 14.0538 18.2635 14.6088 18.2676 15.2954V16.5123C18.2635 17.1996 17.7188 17.7556 17.0456 17.7598H15.8535C15.1809 17.7556 14.6373 17.1989 14.6353 16.5123V15.2954C14.6353 14.6086 15.1807 14.0518 15.8535 14.0518ZM17.4457 16.9208C17.5517 16.8125 17.6109 16.6654 17.6099 16.5123V15.2954C17.6099 15.1426 17.5504 14.9961 17.4446 14.888C17.3388 14.78 17.1952 14.7193 17.0456 14.7193H15.8535C15.5418 14.7193 15.2892 14.9772 15.2892 15.2954V16.5123C15.2882 16.6654 15.3473 16.8125 15.4534 16.9208C15.5594 17.029 15.7035 17.0894 15.8535 17.0884H17.0456C17.1955 17.0894 17.3397 17.029 17.4457 16.9208ZM10.2144 16.5085V15.2953C10.2144 14.9648 10.3432 14.6479 10.5725 14.4146C10.8018 14.1812 11.1126 14.0507 11.4364 14.0517H11.9259C12.0511 14.038 12.1729 14.0985 12.2397 14.2074C12.3065 14.3163 12.3065 14.4546 12.2397 14.5636C12.1729 14.6725 12.0511 14.733 11.9259 14.7193H11.4364C11.1241 14.7193 10.8704 14.9766 10.8683 15.2953V16.497C10.8763 16.8132 11.1266 17.067 11.4364 17.0731H12.6359C12.7862 17.0741 12.9307 17.0138 13.0374 16.9057C13.144 16.7975 13.204 16.6504 13.204 16.497V14.6926C13.1796 14.5578 13.2379 14.4215 13.3512 14.3481C13.4646 14.2747 13.6103 14.2791 13.7193 14.359C13.8283 14.439 13.8787 14.5786 13.8467 14.7117V16.5085C13.8467 17.1974 13.2996 17.7559 12.6247 17.7559H11.4364C10.7673 17.7417 10.2283 17.1915 10.2144 16.5085Z" fill="#200E32"/>
        <path fill-rule="evenodd" clip-rule="evenodd" d="M3.47365 1.05981H2.28156C1.60837 1.06398 1.06365 1.62005 1.05957 2.30727V3.52421C1.06367 4.21081 1.60898 4.76578 2.28156 4.76786H3.47365C3.7974 4.76887 4.10823 4.63829 4.3375 4.40496C4.56678 4.17162 4.69564 3.85471 4.69564 3.52421V2.30727C4.69359 1.61919 4.14769 1.06191 3.47365 1.05981ZM4.03806 3.52422C4.04005 3.67867 3.9816 3.82754 3.87567 3.93783C3.76974 4.04812 3.62508 4.11071 3.47378 4.11171H2.28168C2.12813 4.11486 1.97995 4.05397 1.87135 3.94311C1.76275 3.83224 1.70311 3.68098 1.70619 3.52422V2.30728C1.70616 2.1525 1.76715 2.00422 1.87541 1.89586C1.98367 1.78749 2.13009 1.72816 2.28168 1.73124H3.47378C3.78457 1.73332 4.03602 1.99001 4.03806 2.30728V3.52422ZM9.10901 2.30729V3.52042C9.113 3.85026 8.98846 4.16821 8.76279 4.4043C8.53712 4.6404 8.22882 4.7753 7.90571 4.77932H7.41243C7.24532 4.76106 7.11858 4.61709 7.11858 4.44552C7.11858 4.27395 7.24532 4.12998 7.41243 4.11172H7.89076C8.04207 4.11072 8.18672 4.04813 8.29266 3.93784C8.39859 3.82755 8.45704 3.67868 8.45504 3.52423V2.30729C8.45102 1.99087 8.20072 1.73536 7.89076 1.73125H6.69867C6.38703 1.73125 6.13439 1.98915 6.13439 2.30729V4.12698C6.1283 4.3115 5.9789 4.45724 5.79806 4.45506C5.71116 4.45307 5.62866 4.41564 5.56897 4.35113C5.50929 4.28662 5.4774 4.2004 5.48042 4.11172V2.30729C5.47943 1.9768 5.60734 1.65949 5.83591 1.42543C6.06449 1.19138 6.37492 1.05983 6.69867 1.05983H7.89076C8.55835 1.07601 9.09521 1.62574 9.10901 2.30729ZM6.69872 5.40503H7.89081C8.5634 5.40711 9.1087 5.96208 9.1128 6.64867V7.86561C9.10872 8.55283 8.564 9.10891 7.89081 9.11307H6.69872C6.02615 9.10889 5.48251 8.55222 5.48047 7.86561V6.64867C5.48047 5.96183 6.0259 5.40503 6.69872 5.40503ZM8.29091 8.27403C8.39695 8.16578 8.45608 8.01867 8.45508 7.86558V6.64864C8.45508 6.49586 8.39563 6.34934 8.28981 6.24131C8.18398 6.13328 8.04045 6.07259 7.8908 6.07259H6.6987C6.38706 6.07259 6.13442 6.3305 6.13442 6.64864V7.86558C6.13342 8.01867 6.19255 8.16578 6.29859 8.27403C6.40463 8.38229 6.54874 8.44265 6.6987 8.44162H7.8908C8.04076 8.44265 8.18487 8.38229 8.29091 8.27403ZM1.05959 7.86173V6.6486C1.05959 6.3181 1.18845 6.0012 1.41773 5.76786C1.647 5.53452 1.95783 5.40394 2.28158 5.40496H2.77112C2.89629 5.39128 3.01812 5.45174 3.0849 5.56067C3.15167 5.66961 3.15167 5.8079 3.0849 5.91684C3.01812 6.02577 2.89629 6.08624 2.77112 6.07256H2.28158C1.96932 6.07255 1.71561 6.32984 1.71356 6.6486V7.85028C1.7215 8.16648 1.97179 8.42031 2.28158 8.42632H3.48115C3.63145 8.42734 3.77594 8.3671 3.88257 8.25896C3.9892 8.15082 4.04917 8.00372 4.04917 7.85028V6.04585C4.02479 5.9111 4.08309 5.77475 4.19645 5.70138C4.30982 5.628 4.45549 5.63232 4.56449 5.7123C4.67348 5.79227 4.72392 5.93185 4.69192 6.06493V7.86173C4.69192 8.55068 4.14482 9.10918 3.46993 9.10918H2.28158C1.61253 9.09501 1.07347 8.54472 1.05959 7.86173Z" fill="#200E32"/>
        <path fill-rule="evenodd" clip-rule="evenodd" d="M12.6284 1.0603H11.4363C10.7632 1.06447 10.2184 1.62054 10.2144 2.30776V3.5247C10.2185 4.2113 10.7638 4.76627 11.4363 4.76835H12.6284C12.9522 4.76936 13.263 4.63878 13.4923 4.40544C13.7216 4.1721 13.8504 3.8552 13.8504 3.5247V2.30776C13.8484 1.61968 13.3025 1.0624 12.6284 1.0603ZM13.1928 3.52471C13.1948 3.67916 13.1364 3.82803 13.0305 3.93832C12.9245 4.04861 12.7799 4.11119 12.6286 4.1122H11.4365C11.2829 4.11534 11.1347 4.05446 11.0261 3.94359C10.9175 3.83273 10.8579 3.68146 10.861 3.52471V2.30777C10.8609 2.15299 10.9219 2.00471 11.0302 1.89634C11.1385 1.78798 11.2849 1.72865 11.4365 1.73172H12.6286C12.9394 1.73381 13.1908 1.99049 13.1928 2.30777V3.52471ZM18.2638 2.30778V3.52091C18.2678 3.85075 18.1432 4.16869 17.9176 4.40479C17.6919 4.64089 17.3836 4.77579 17.0605 4.77981H16.5672C16.4001 4.76154 16.2734 4.61758 16.2734 4.44601C16.2734 4.27443 16.4001 4.13047 16.5672 4.11221H17.0455C17.1969 4.11121 17.3415 4.04862 17.4474 3.93833C17.5534 3.82804 17.6118 3.67917 17.6098 3.52472V2.30778C17.6058 1.99136 17.3555 1.73585 17.0455 1.73174H15.8535C15.5418 1.73174 15.2892 1.98964 15.2892 2.30778V4.12747C15.2831 4.31199 15.1337 4.45772 14.9528 4.45555C14.8659 4.45356 14.7834 4.41613 14.7238 4.35162C14.6641 4.28711 14.6322 4.20089 14.6352 4.11221V2.30778C14.6342 1.97728 14.7621 1.65998 14.9907 1.42592C15.2193 1.19187 15.5297 1.06032 15.8535 1.06032H17.0455C17.7131 1.0765 18.25 1.62623 18.2638 2.30778ZM15.8535 5.40552H17.0456C17.7182 5.4076 18.2635 5.96257 18.2676 6.64916V7.8661C18.2635 8.55332 17.7188 9.1094 17.0456 9.11356H15.8535C15.1809 9.10938 14.6373 8.5527 14.6353 7.8661V6.64916C14.6353 5.96232 15.1807 5.40552 15.8535 5.40552ZM17.4457 8.27452C17.5517 8.16627 17.6109 8.01915 17.6099 7.86607V6.64913C17.6099 6.49635 17.5504 6.34983 17.4446 6.2418C17.3388 6.13377 17.1952 6.07308 17.0456 6.07308H15.8535C15.5418 6.07308 15.2892 6.33099 15.2892 6.64913V7.86607C15.2882 8.01915 15.3473 8.16627 15.4534 8.27452C15.5594 8.38277 15.7035 8.44313 15.8535 8.44211H17.0456C17.1955 8.44313 17.3397 8.38277 17.4457 8.27452ZM10.2144 7.86221V6.64909C10.2144 6.31859 10.3432 6.00169 10.5725 5.76835C10.8018 5.53501 11.1126 5.40443 11.4364 5.40544H11.9259C12.0511 5.39176 12.1729 5.45223 12.2397 5.56116C12.3065 5.6701 12.3065 5.80839 12.2397 5.91733C12.1729 6.02626 12.0511 6.08672 11.9259 6.07304H11.4364C11.1241 6.07304 10.8704 6.33033 10.8683 6.64909V7.85077C10.8763 8.16697 11.1266 8.42079 11.4364 8.42681H12.6359C12.7862 8.42783 12.9307 8.36759 13.0374 8.25945C13.144 8.15131 13.204 8.00421 13.204 7.85077V6.04634C13.1796 5.91159 13.2379 5.77524 13.3512 5.70187C13.4646 5.62849 13.6103 5.63281 13.7193 5.71279C13.8283 5.79276 13.8787 5.93234 13.8467 6.06541V7.86221C13.8467 8.55117 13.2996 9.10967 12.6247 9.10967H11.4364C10.7673 9.0955 10.2283 8.54521 10.2144 7.86221Z" fill="#200E32"/>
    </symbol>

    <symbol id="switching-big" viewBox="0 0 17 17" fill="none" xmlns="http://www.w3.org/2000/svg">
        <path fill-rule="evenodd" clip-rule="evenodd" d="M5.26773 0.172363H2.82394C1.4439 0.180902 0.327226 1.32085 0.318862 2.72965V5.22438C0.327263 6.6319 1.44514 7.76959 2.82394 7.77385H5.26773C5.93141 7.77593 6.56861 7.50824 7.03863 7.0299C7.50864 6.55156 7.77281 5.9019 7.77281 5.22438V2.72965C7.7686 1.31908 6.6495 0.176657 5.26773 0.172363ZM6.42464 5.22446C6.42873 5.54108 6.3089 5.84627 6.09174 6.07236C5.87458 6.29846 5.57803 6.42676 5.26786 6.42881H2.82407C2.50928 6.43526 2.20552 6.31045 1.98289 6.08318C1.76026 5.8559 1.63799 5.54581 1.64431 5.22446V2.72973C1.64425 2.41244 1.76927 2.10846 1.99121 1.88631C2.21314 1.66417 2.51331 1.54254 2.82407 1.54884H5.26786C5.90499 1.55311 6.42046 2.07932 6.42464 2.72973V5.22446ZM16.8202 2.72967V5.21658C16.8283 5.89275 16.573 6.54455 16.1104 7.02854C15.6478 7.51254 15.0158 7.78908 14.3534 7.79733H13.3422C12.9996 7.75989 12.7398 7.46477 12.7398 7.11304C12.7398 6.76131 12.9996 6.46619 13.3422 6.42875H14.3228C14.6329 6.42669 14.9295 6.29839 15.1466 6.0723C15.3638 5.84621 15.4836 5.54101 15.4795 5.2244V2.72967C15.4713 2.081 14.9582 1.55721 14.3228 1.54878H11.879C11.2401 1.54878 10.7222 2.07748 10.7222 2.72967V6.46003C10.7097 6.83829 10.4034 7.13706 10.0327 7.13259C9.85457 7.12852 9.68544 7.05179 9.56309 6.91955C9.44074 6.7873 9.37536 6.61054 9.38155 6.42875V2.72967C9.37951 2.05215 9.64173 1.40168 10.1103 0.921864C10.5789 0.442053 11.2153 0.172376 11.879 0.172379H14.3228C15.6913 0.205553 16.7919 1.33249 16.8202 2.72967ZM11.8788 9.08014H14.3226C15.7014 9.08441 16.8193 10.2221 16.8277 11.6296V14.1243C16.8193 15.5331 15.7026 16.6731 14.3226 16.6816H11.8788C10.5 16.6731 9.38557 15.5319 9.38139 14.1243V11.6296C9.38139 10.2216 10.4995 9.08014 11.8788 9.08014ZM15.1428 14.9618C15.3602 14.7398 15.4814 14.4382 15.4793 14.1244V11.6297C15.4793 11.3165 15.3575 11.0161 15.1405 10.7947C14.9236 10.5732 14.6294 10.4488 14.3226 10.4488H11.8788C11.2399 10.4488 10.722 10.9775 10.722 11.6297V14.1244C10.7199 14.4382 10.8411 14.7398 11.0585 14.9618C11.2759 15.1837 11.5713 15.3074 11.8788 15.3053H14.3226C14.63 15.3074 14.9254 15.1837 15.1428 14.9618ZM0.318848 14.1164V11.6295C0.318845 10.952 0.583016 10.3023 1.05303 9.82398C1.52305 9.34564 2.16024 9.07795 2.82393 9.08003H3.82749C4.08408 9.05199 4.33384 9.17593 4.47073 9.39925C4.60762 9.62257 4.60762 9.90607 4.47073 10.1294C4.33384 10.3527 4.08408 10.4767 3.82749 10.4486H2.82393C2.1838 10.4486 1.6637 10.976 1.65949 11.6295V14.0929C1.67576 14.7412 2.18886 15.2615 2.82393 15.2738H5.28304C5.59116 15.2759 5.88736 15.1524 6.10596 14.9307C6.32456 14.7091 6.44748 14.4075 6.44748 14.0929V10.3939C6.39751 10.1176 6.51703 9.83811 6.74942 9.68769C6.98182 9.53727 7.28044 9.54613 7.50388 9.71008C7.72733 9.87403 7.83073 10.1602 7.76513 10.433V14.1164C7.76513 15.5288 6.64357 16.6737 5.26006 16.6737H2.82393C1.45237 16.6446 0.347304 15.5165 0.318848 14.1164Z" fill="black"/>
    </symbol>
    
    <symbol id="catalog-mobile-control-icon" width="20" height="20" viewBox="0 0 20 20" fill="none" xmlns="http://www.w3.org/2000/svg">
        <path fill-rule="evenodd" clip-rule="evenodd" d="M2.53852 0H5.92449C7.32676 0 8.46301 1.14585 8.46301 2.55996V5.97452C8.46301 7.38864 7.32676 8.53449 5.92449 8.53449H2.53852C1.13626 8.53449 0 7.38864 0 5.97452V2.55996C0 1.14585 1.13626 0 2.53852 0ZM2.53852 11.4655H5.92449C7.32676 11.4655 8.46301 12.6114 8.46301 14.0255V17.44C8.46301 18.8532 7.32676 20 5.92449 20H2.53852C1.13626 20 0 18.8532 0 17.44V14.0255C0 12.6114 1.13626 11.4655 2.53852 11.4655ZM17.4615 11.4655H14.0755C12.6732 11.4655 11.537 12.6114 11.537 14.0255V17.44C11.537 18.8532 12.6732 20 14.0755 20H17.4615C18.8637 20 20 18.8532 20 17.44V14.0255C20 12.6114 18.8637 11.4655 17.4615 11.4655Z" fill="#EBEBEB"/>
        <path d="M14.0756 0H17.4616C18.8639 0 20.0001 1.14585 20.0001 2.55996V5.97452C20.0001 7.38864 18.8639 8.53449 17.4616 8.53449H14.0756C12.6734 8.53449 11.5371 7.38864 11.5371 5.97452V2.55996C11.5371 1.14585 12.6734 0 14.0756 0Z" fill="#200E32"/>
    </symbol>

    <symbol id="catalog-mobile-filter-icon" width="19" height="19" viewBox="0 0 19 19" fill="none" xmlns="http://www.w3.org/2000/svg">
        <path d="M18.3221 0H0.679549C0.304778 0 0.000976562 0.303801 0.000976562 0.678573V4.07136C0.00101632 4.26363 0.0826422 4.44688 0.225577 4.57555L6.78659 10.4804V18.3211C6.78643 18.6959 7.09007 18.9998 7.46484 19C7.57024 19 7.67421 18.9755 7.76848 18.9284L11.8398 16.8928C12.0699 16.7778 12.2152 16.5426 12.2151 16.2854V10.4804L18.7761 4.5769C18.9194 4.44796 19.0011 4.26415 19.0007 4.07136V0.678573C19.0007 0.303801 18.6969 0 18.3221 0ZM17.6435 3.76939L11.0825 9.67285C10.9393 9.80179 10.8576 9.9856 10.8579 10.1784V15.8661L8.14369 17.2232V10.1784C8.14365 9.98612 8.06203 9.80287 7.91909 9.67425L1.35808 3.76939V1.35711H17.6435V3.76939Z" fill="#888888"/>
    </symbol>

    <symbol id="catalog-mobile-category-icon" width="22" height="22" viewBox="0 0 22 22" fill="none" xmlns="http://www.w3.org/2000/svg">
        <path fill-rule="evenodd" clip-rule="evenodd" d="M3.79226 11.1504H2.49106C1.75626 11.1549 1.16168 11.7619 1.15723 12.512V13.8403C1.1617 14.5898 1.75692 15.1955 2.49106 15.1978H3.79226C4.14563 15.1989 4.48491 15.0564 4.73517 14.8017C4.98543 14.547 5.12609 14.2011 5.12609 13.8403V12.512C5.12385 11.761 4.52798 11.1527 3.79226 11.1504ZM4.40833 13.8402C4.41051 14.0088 4.34671 14.1713 4.23108 14.2917C4.11545 14.4121 3.95755 14.4804 3.7924 14.4815H2.4912C2.32359 14.4849 2.16185 14.4185 2.04331 14.2975C1.92477 14.1764 1.85967 14.0113 1.86304 13.8402V12.5119C1.863 12.343 1.92957 12.1811 2.04774 12.0628C2.16591 11.9446 2.32574 11.8798 2.4912 11.8832H3.7924C4.13164 11.8854 4.4061 12.1656 4.40833 12.5119V13.8402ZM9.94339 12.512V13.8362C9.94774 14.1962 9.8118 14.5433 9.56548 14.801C9.31916 15.0587 8.98263 15.2059 8.62995 15.2103H8.09153C7.90912 15.1904 7.77079 15.0332 7.77079 14.846C7.77079 14.6587 7.90912 14.5015 8.09153 14.4816H8.61364C8.77879 14.4805 8.93669 14.4122 9.05231 14.2918C9.16794 14.1714 9.23174 14.0089 9.22957 13.8403V12.512C9.22517 12.1666 8.95197 11.8877 8.61364 11.8833H7.31244C6.97227 11.8833 6.69651 12.1648 6.69651 12.512V14.4983C6.68987 14.6997 6.5268 14.8587 6.3294 14.8564C6.23455 14.8542 6.1445 14.8133 6.07935 14.7429C6.0142 14.6725 5.97939 14.5784 5.98269 14.4816V12.512C5.9816 12.1513 6.12122 11.8049 6.37072 11.5495C6.62021 11.294 6.95906 11.1504 7.31244 11.1504H8.61364C9.34233 11.1681 9.92832 11.7681 9.94339 12.512ZM7.31269 15.8933H8.61388C9.34802 15.8955 9.94324 16.5013 9.94771 17.2507V18.5791C9.94326 19.3292 9.34868 19.9361 8.61388 19.9407H7.31269C6.57856 19.9361 5.98516 19.3285 5.98294 18.5791V17.2507C5.98294 16.501 6.57829 15.8933 7.31269 15.8933ZM9.0506 19.0247C9.16635 18.9065 9.23089 18.7459 9.2298 18.5788V17.2505C9.2298 17.0838 9.16491 16.9238 9.0494 16.8059C8.93389 16.688 8.77722 16.6218 8.61387 16.6218H7.31267C6.9725 16.6218 6.69674 16.9033 6.69674 17.2505V18.5788C6.69565 18.7459 6.76019 18.9065 6.87594 19.0247C6.99168 19.1428 7.14898 19.2087 7.31267 19.2076H8.61387C8.77756 19.2087 8.93486 19.1428 9.0506 19.0247ZM1.15723 18.5747V17.2505C1.15723 16.8898 1.29788 16.5439 1.54814 16.2892C1.7984 16.0345 2.13768 15.8919 2.49106 15.893H3.02541C3.16203 15.8781 3.29501 15.9441 3.3679 16.063C3.44079 16.1819 3.44079 16.3329 3.3679 16.4518C3.29501 16.5707 3.16203 16.6367 3.02541 16.6218H2.49106C2.15022 16.6217 1.87329 16.9026 1.87105 17.2505V18.5622C1.87972 18.9073 2.15292 19.1844 2.49106 19.1909H3.80041C3.96447 19.1921 4.12219 19.1263 4.23858 19.0083C4.35497 18.8902 4.42042 18.7297 4.42042 18.5622V16.5926C4.39382 16.4455 4.45745 16.2967 4.58119 16.2166C4.70493 16.1365 4.86393 16.1412 4.98291 16.2285C5.10188 16.3158 5.15694 16.4682 5.12201 16.6134V18.5747C5.12201 19.3267 4.52483 19.9363 3.78818 19.9363H2.49106C1.76077 19.9208 1.17238 19.3202 1.15723 18.5747Z" fill="#888888"/>
        <path fill-rule="evenodd" clip-rule="evenodd" d="M13.7854 11.1504H12.4842C11.7494 11.1549 11.1548 11.7619 11.1504 12.512V13.8403C11.1549 14.5898 11.7501 15.1955 12.4842 15.1978H13.7854C14.1388 15.1989 14.4781 15.0564 14.7283 14.8017C14.9786 14.547 15.1193 14.2011 15.1193 13.8403V12.512C15.117 11.761 14.5211 11.1527 13.7854 11.1504ZM14.4015 13.8402C14.4037 14.0088 14.3399 14.1713 14.2242 14.2917C14.1086 14.4121 13.9507 14.4804 13.7856 14.4815H12.4844C12.3168 14.4849 12.155 14.4185 12.0365 14.2975C11.9179 14.1764 11.8528 14.0113 11.8562 13.8402V12.5119C11.8562 12.343 11.9227 12.1811 12.0409 12.0628C12.1591 11.9446 12.3189 11.8798 12.4844 11.8832H13.7856C14.1248 11.8854 14.3993 12.1656 14.4015 12.5119V13.8402ZM19.9366 12.512V13.8362C19.9409 14.1962 19.805 14.5433 19.5586 14.801C19.3123 15.0587 18.9758 15.2059 18.6231 15.2103H18.0847C17.9023 15.1904 17.7639 15.0332 17.7639 14.846C17.7639 14.6587 17.9023 14.5015 18.0847 14.4816H18.6068C18.772 14.4805 18.9299 14.4122 19.0455 14.2918C19.1611 14.1714 19.2249 14.0089 19.2227 13.8403V12.512C19.2183 12.1666 18.9451 11.8877 18.6068 11.8833H17.3056C16.9654 11.8833 16.6897 12.1648 16.6897 12.512V14.4983C16.683 14.6997 16.52 14.8587 16.3226 14.8564C16.2277 14.8542 16.1377 14.8133 16.0725 14.7429C16.0074 14.6725 15.9726 14.5784 15.9759 14.4816V12.512C15.9748 12.1513 16.1144 11.8049 16.3639 11.5495C16.6134 11.294 16.9522 11.1504 17.3056 11.1504H18.6068C19.3355 11.1681 19.9215 11.7681 19.9366 12.512ZM17.3059 15.8933H18.607C19.3412 15.8955 19.9364 16.5013 19.9409 17.2507V18.5791C19.9364 19.3292 19.3418 19.9361 18.607 19.9407H17.3059C16.5717 19.9361 15.9783 19.3285 15.9761 18.5791V17.2507C15.9761 16.501 16.5714 15.8933 17.3059 15.8933ZM19.0438 19.0247C19.1595 18.9065 19.2241 18.7459 19.223 18.5788V17.2505C19.223 17.0838 19.1581 16.9238 19.0426 16.8059C18.9271 16.688 18.7704 16.6218 18.607 16.6218H17.3058C16.9657 16.6218 16.6899 16.9033 16.6899 17.2505V18.5788C16.6888 18.7459 16.7534 18.9065 16.8691 19.0247C16.9848 19.1428 17.1421 19.2087 17.3058 19.2076H18.607C18.7707 19.2087 18.928 19.1428 19.0438 19.0247ZM11.1504 18.5747V17.2505C11.1504 16.8898 11.291 16.5439 11.5413 16.2892C11.7916 16.0345 12.1308 15.8919 12.4842 15.893H13.0186C13.1552 15.8781 13.2882 15.9441 13.3611 16.063C13.434 16.1819 13.434 16.3329 13.3611 16.4518C13.2882 16.5707 13.1552 16.6367 13.0186 16.6218H12.4842C12.1434 16.6217 11.8665 16.9026 11.8642 17.2505V18.5622C11.8729 18.9073 12.1461 19.1844 12.4842 19.1909H13.7936C13.9576 19.1921 14.1154 19.1263 14.2317 19.0083C14.3481 18.8902 14.4136 18.7297 14.4136 18.5622V16.5926C14.387 16.4455 14.4506 16.2967 14.5744 16.2166C14.6981 16.1365 14.8571 16.1412 14.9761 16.2285C15.095 16.3158 15.1501 16.4682 15.1152 16.6134V18.5747C15.1152 19.3267 14.518 19.9363 13.7813 19.9363H12.4842C11.7539 19.9208 11.1655 19.3202 11.1504 18.5747Z" fill="#888888"/>
        <path fill-rule="evenodd" clip-rule="evenodd" d="M3.79226 1.71191H2.49106C1.75626 1.71646 1.16168 2.32343 1.15723 3.07355V4.40187C1.1617 5.1513 1.75692 5.75706 2.49106 5.75933H3.79226C4.14563 5.76044 4.48491 5.61791 4.73517 5.36322C4.98543 5.10852 5.12609 4.76261 5.12609 4.40187V3.07355C5.12385 2.32249 4.52798 1.7142 3.79226 1.71191ZM4.40833 4.40176C4.41051 4.57034 4.34671 4.73284 4.23108 4.85323C4.11545 4.97361 3.95755 5.04192 3.7924 5.04302H2.4912C2.32359 5.04645 2.16185 4.98 2.04331 4.85898C1.92477 4.73797 1.85967 4.57286 1.86304 4.40176V3.07344C1.863 2.9045 1.92957 2.74264 2.04774 2.62436C2.16591 2.50608 2.32574 2.44132 2.4912 2.44468H3.7924C4.13164 2.44695 4.4061 2.72713 4.40833 3.07344V4.40176ZM9.94339 3.07355V4.3977C9.94774 4.75773 9.8118 5.10478 9.56548 5.36248C9.31916 5.62019 8.98263 5.76744 8.62995 5.77183H8.09153C7.90912 5.75189 7.77079 5.59475 7.77079 5.40747C7.77079 5.2202 7.90912 5.06306 8.09153 5.04312H8.61364C8.77879 5.04203 8.93669 4.97372 9.05231 4.85333C9.16794 4.73295 9.23174 4.57045 9.22957 4.40187V3.07355C9.22517 2.72816 8.95197 2.44927 8.61364 2.44478H7.31244C6.97227 2.44478 6.69651 2.72629 6.69651 3.07355V5.05978C6.68987 5.26119 6.5268 5.42026 6.3294 5.41788C6.23455 5.41572 6.1445 5.37486 6.07935 5.30445C6.0142 5.23403 5.97939 5.13992 5.98269 5.04312V3.07355C5.9816 2.7128 6.12122 2.36645 6.37072 2.11098C6.62021 1.8555 6.95906 1.71191 7.31244 1.71191H8.61364C9.34233 1.72958 9.92832 2.32961 9.94339 3.07355ZM7.31269 6.45479H8.61388C9.34802 6.45706 9.94324 7.06282 9.94771 7.81226V9.14058C9.94326 9.89069 9.34868 10.4977 8.61388 10.5022H7.31269C6.57856 10.4976 5.98516 9.89002 5.98294 9.14058V7.81226C5.98294 7.06255 6.57829 6.45479 7.31269 6.45479ZM9.0506 9.58621C9.16635 9.46805 9.23089 9.30747 9.2298 9.14037V7.81205C9.2298 7.64529 9.16491 7.48536 9.0494 7.36745C8.93389 7.24953 8.77722 7.18328 8.61387 7.18328H7.31267C6.9725 7.18328 6.69674 7.46479 6.69674 7.81205V9.14037C6.69565 9.30747 6.76019 9.46805 6.87594 9.58621C6.99168 9.70437 7.14898 9.77026 7.31267 9.76914H8.61387C8.77756 9.77026 8.93486 9.70437 9.0506 9.58621ZM1.15723 9.1362V7.81204C1.15723 7.45129 1.29788 7.10538 1.54814 6.85069C1.7984 6.59599 2.13768 6.45347 2.49106 6.45457H3.02541C3.16203 6.43964 3.29501 6.50564 3.3679 6.62454C3.44079 6.74345 3.44079 6.8944 3.3679 7.0133C3.29501 7.13221 3.16203 7.19821 3.02541 7.18327H2.49106C2.15022 7.18327 1.87329 7.46411 1.87105 7.81204V9.1237C1.87972 9.46884 2.15292 9.7459 2.49106 9.75247H3.80041C3.96447 9.75358 4.12219 9.68782 4.23858 9.56979C4.35497 9.45175 4.42042 9.29119 4.42042 9.1237V7.15413C4.39382 7.00704 4.45745 6.85822 4.58119 6.77812C4.70493 6.69803 4.86393 6.70275 4.98291 6.79004C5.10188 6.87734 5.15694 7.02969 5.12201 7.17495V9.1362C5.12201 9.88821 4.52483 10.4978 3.78818 10.4978H2.49106C1.76077 10.4824 1.17238 9.8817 1.15723 9.1362Z" fill="#888888"/>
        <path fill-rule="evenodd" clip-rule="evenodd" d="M13.7854 1.71191H12.4842C11.7494 1.71646 11.1548 2.32343 11.1504 3.07355V4.40187C11.1549 5.1513 11.7501 5.75706 12.4842 5.75933H13.7854C14.1388 5.76044 14.4781 5.61791 14.7283 5.36322C14.9786 5.10852 15.1193 4.76261 15.1193 4.40187V3.07355C15.117 2.32249 14.5211 1.7142 13.7854 1.71191ZM14.4015 4.40176C14.4037 4.57034 14.3399 4.73284 14.2242 4.85323C14.1086 4.97361 13.9507 5.04192 13.7856 5.04302H12.4844C12.3168 5.04645 12.155 4.98 12.0365 4.85898C11.9179 4.73797 11.8528 4.57286 11.8562 4.40176V3.07344C11.8562 2.9045 11.9227 2.74264 12.0409 2.62436C12.1591 2.50608 12.3189 2.44132 12.4844 2.44468H13.7856C14.1248 2.44695 14.3993 2.72713 14.4015 3.07344V4.40176ZM19.9366 3.07355V4.3977C19.9409 4.75773 19.805 5.10478 19.5586 5.36248C19.3123 5.62019 18.9758 5.76744 18.6231 5.77183H18.0847C17.9023 5.75189 17.7639 5.59475 17.7639 5.40747C17.7639 5.2202 17.9023 5.06306 18.0847 5.04312H18.6068C18.772 5.04203 18.9299 4.97372 19.0455 4.85333C19.1611 4.73295 19.2249 4.57045 19.2227 4.40187V3.07355C19.2183 2.72816 18.9451 2.44927 18.6068 2.44478H17.3056C16.9654 2.44478 16.6897 2.72629 16.6897 3.07355V5.05978C16.683 5.26119 16.52 5.42026 16.3226 5.41788C16.2277 5.41572 16.1377 5.37486 16.0725 5.30445C16.0074 5.23403 15.9726 5.13992 15.9759 5.04312V3.07355C15.9748 2.7128 16.1144 2.36645 16.3639 2.11098C16.6134 1.8555 16.9522 1.71191 17.3056 1.71191H18.6068C19.3355 1.72958 19.9215 2.32961 19.9366 3.07355ZM17.3059 6.45479H18.607C19.3412 6.45706 19.9364 7.06282 19.9409 7.81226V9.14058C19.9364 9.89069 19.3418 10.4977 18.607 10.5022H17.3059C16.5717 10.4976 15.9783 9.89002 15.9761 9.14058V7.81226C15.9761 7.06255 16.5714 6.45479 17.3059 6.45479ZM19.0438 9.58621C19.1595 9.46805 19.2241 9.30747 19.223 9.14037V7.81205C19.223 7.64529 19.1581 7.48536 19.0426 7.36745C18.9271 7.24953 18.7704 7.18328 18.607 7.18328H17.3058C16.9657 7.18328 16.6899 7.46479 16.6899 7.81205V9.14037C16.6888 9.30747 16.7534 9.46805 16.8691 9.58621C16.9848 9.70437 17.1421 9.77026 17.3058 9.76914H18.607C18.7707 9.77026 18.928 9.70437 19.0438 9.58621ZM11.1504 9.1362V7.81204C11.1504 7.45129 11.291 7.10538 11.5413 6.85069C11.7916 6.59599 12.1308 6.45347 12.4842 6.45457H13.0186C13.1552 6.43964 13.2882 6.50564 13.3611 6.62454C13.434 6.74345 13.434 6.8944 13.3611 7.0133C13.2882 7.13221 13.1552 7.19821 13.0186 7.18327H12.4842C12.1434 7.18327 11.8665 7.46411 11.8642 7.81204V9.1237C11.8729 9.46884 12.1461 9.7459 12.4842 9.75247H13.7936C13.9576 9.75358 14.1154 9.68782 14.2317 9.56979C14.3481 9.45175 14.4136 9.29119 14.4136 9.1237V7.15413C14.387 7.00704 14.4506 6.85822 14.5744 6.77812C14.6981 6.69803 14.8571 6.70275 14.9761 6.79004C15.095 6.87734 15.1501 7.02969 15.1152 7.17495V9.1362C15.1152 9.88821 14.518 10.4978 13.7813 10.4978H12.4842C11.7539 10.4824 11.1655 9.8817 11.1504 9.1362Z" fill="#888888"/>
    </symbol>

    <symbol id="catalog-mobile-filter2-icon" width="20" height="20" viewBox="0 0 20 20" fill="none" xmlns="http://www.w3.org/2000/svg">
        <path d="M8.11693 15.9867H0.882812" stroke="#200E32" stroke-width="1.5" stroke-linecap="round" stroke-linejoin="round"/>
        <path fill-rule="evenodd" clip-rule="evenodd" d="M19.1184 15.9864C19.1184 17.577 17.829 18.8664 16.2384 18.8664C14.6478 18.8664 13.3584 17.577 13.3584 15.9864C13.3584 14.3947 14.6478 13.1064 16.2384 13.1064C17.829 13.1064 19.1184 14.3947 19.1184 15.9864Z" stroke="#200E32" stroke-width="1.5" stroke-linecap="round" stroke-linejoin="round"/>
        <path d="M11.8828 4.26206H19.1181" stroke="#200E32" stroke-width="1.5" stroke-linecap="round" stroke-linejoin="round"/>
        <path fill-rule="evenodd" clip-rule="evenodd" d="M0.882812 4.26184C0.882812 5.8536 2.17222 7.14184 3.76281 7.14184C5.3534 7.14184 6.64281 5.8536 6.64281 4.26184C6.64281 2.67125 5.3534 1.38184 3.76281 1.38184C2.17222 1.38184 0.882812 2.67125 0.882812 4.26184Z" stroke="#200E32" stroke-width="1.5" stroke-linecap="round" stroke-linejoin="round"/>
    </symbol>


    <symbol id="button-video" xmlns="http://www.w3.org/2000/svg" viewBox="0 0 510 352" preserveAspectRatio="xMidYMid meet">
        <g transform="translate(0.000000,352.000000) scale(0.100000,-0.100000)"
        fill="#000000" stroke="none">
        <path d="M433 3425 c-81 -41 -97 -74 -103 -220 l-5 -120 -65 -6 c-36 -3 -81
        -13 -101 -21 -46 -20 -105 -72 -135 -120 l-24 -38 0 -1353 0 -1354 32 -48 c39
        -58 114 -108 188 -124 42 -9 482 -11 1795 -9 l1740 3 46 23 c65 32 125 96 149
        159 18 49 20 78 20 314 0 143 4 259 8 257 5 -2 231 -128 504 -280 536 -301
        541 -303 589 -252 l24 26 0 1295 0 1295 -28 24 c-35 30 -65 30 -120 3 -23 -12
        -246 -136 -496 -276 -250 -140 -460 -257 -467 -260 -10 -4 -13 51 -16 264 l-3
        268 -27 51 c-15 29 -46 68 -69 87 -80 69 -55 67 -831 67 l-698 0 0 118 c0 146
        -18 193 -90 230 -44 22 -49 23 -351 20 -303 -3 -306 -3 -340 -27 -19 -13 -46
        -40 -59 -60 -22 -32 -25 -49 -28 -159 l-4 -123 -127 3 -126 3 -5 125 c-6 140
        -16 168 -78 210 l-35 25 -306 3 -306 3 -52 -26z m1718 -911 c168 -32 303 -93
        436 -198 112 -89 192 -188 258 -321 82 -166 100 -245 99 -440 -1 -194 -17
        -266 -99 -430 -98 -196 -235 -333 -430 -430 -160 -79 -245 -99 -430 -100 -159
        0 -234 13 -358 61 -425 167 -680 618 -602 1067 92 530 604 890 1126 791z"/>
        <path d="M1651 2174 c-21 -26 -21 -35 -21 -611 0 -584 2 -614 34 -635 21 -14
        71 -8 104 12 59 36 747 512 771 534 13 11 30 36 37 54 12 27 12 37 0 65 -7 17
        -24 42 -37 53 -26 24 -751 524 -786 542 -38 21 -79 15 -102 -14z"/>
        </g>
    </symbol>



</svg>
