<svg width="432" height="124" viewBox="0 0 432 124" fill="none" xmlns="http://www.w3.org/2000/svg">
<path d="M182.46 60.3155C186.626 75.8822 198.991 73.6678 213.878 69.6775L212.738 65.446C212.015 62.7492 210.107 61.653 208.792 61.7626C202.96 62.0695 197.763 60.1621 195.878 56.8952V29.4452H206.994V22.2757C206.994 20.3025 205.393 18.702 203.42 18.702H195.878V3.22297C195.878 1.44705 194.431 0 192.655 0H182.46C182.109 0 181.736 0 181.386 0C181.386 0.679673 181.386 1.81979 181.386 3.31069C181.605 5.96361 181.824 11.9711 181.977 18.6801H177.461V25.8495C177.461 27.8228 179.061 29.4233 181.035 29.4233H182.219C182.372 36.8997 182.46 43.5429 182.46 45.6477V60.3155Z" fill="#B01116"/>
<path d="M14.5143 38.9166C14.5143 34.2466 18.1539 30.4974 22.6485 29.7081C27.9543 28.7873 32.9532 32.0321 33.8302 36.9872V69.1949C33.8302 70.9708 35.2772 72.4179 37.0531 72.4179H47.2483C47.5991 72.4179 47.9718 72.4179 48.3226 72.4179C48.3226 72.0232 48.3226 71.3436 48.3226 70.4666C47.7306 66.3666 47.2483 48.5197 47.2483 45.5818V36.9872C47.2483 26.3097 40.0569 17.6494 28.2832 17.6494C22.8896 17.6494 18.1539 19.4911 14.4924 22.5168V21.9467C14.4924 20.1708 13.0453 18.7237 11.2694 18.7237C7.52025 18.7237 3.74917 18.7237 0 18.7237C0 19.1184 0 19.7981 0 20.6751C0.591973 24.775 1.0743 42.6219 1.0743 45.5598V69.1949C1.0743 70.9708 2.52135 72.4179 4.29727 72.4179C8.04644 72.4179 11.8175 72.4179 15.5667 72.4179C15.5667 72.0232 15.5667 71.3436 15.5667 70.4666C14.9747 66.3666 14.4924 48.5197 14.4924 45.5818L14.5143 38.9166Z" fill="#B01116"/>
<path fill-rule="evenodd" clip-rule="evenodd" d="M403.264 17.6494C418.677 17.6494 431.197 30.1466 431.197 45.5818C431.197 60.995 418.699 73.5141 403.264 73.5141C397.586 73.5141 392.324 71.8259 387.917 68.9318C388.114 79.4558 388.421 91.7557 388.772 95.8995C388.772 97.4343 388.772 98.5963 388.772 99.2979C388.421 99.2979 388.048 99.2979 387.698 99.2979H377.502C375.726 99.2979 374.279 97.8508 374.279 96.0749V64.4153C374.279 59.4164 373.797 29.0504 373.205 22.0782C373.205 20.5873 373.205 19.4253 373.205 18.7675C373.556 18.7675 373.929 18.7675 374.279 18.7675H380.988C383.203 18.7675 385.023 20.5873 385.023 22.8017V24.49C389.912 20.2146 396.292 17.6494 403.264 17.6494ZM398.485 27.6033C406.378 26.222 414.183 33.1284 415.937 43.0604C417.691 52.9924 412.714 62.1571 404.821 63.5602C396.928 64.9415 389.123 58.0351 387.369 48.1031C385.637 38.1711 390.613 28.9846 398.485 27.6033Z" fill="#58595B"/>
<path d="M129.074 18.7461H117.257C114.823 18.7461 114.187 20.3466 115.546 21.9691L115.305 21.7059L133.678 43.8282L112.543 69.2831L112.63 69.1953C111.271 70.7959 111.907 72.4183 114.34 72.4183H126.158L141.791 53.5848L157.423 72.4183H169.241C171.674 72.4183 172.288 70.8178 170.951 69.1953L171.06 69.305L149.925 43.8282L168.342 21.6401C169.35 20.1492 168.649 18.7461 166.39 18.7461H154.529L141.812 34.0716L129.074 18.7461Z" fill="#B01116"/>
<path fill-rule="evenodd" clip-rule="evenodd" d="M310.13 50.427C307.455 35.233 317.584 20.7626 332.778 18.0877C347.226 15.5444 361.017 24.5995 364.657 38.5437C364.679 38.6533 364.723 38.741 364.745 38.8506L364.767 38.9164C364.92 39.5084 365.051 40.1223 365.139 40.7362C365.885 44.2223 366.17 45.9982 362.903 46.5901L325.828 53.1238C328.02 59.7232 335.804 62.9461 342.271 61.7183C345.429 61.1264 348.213 59.5917 350.406 57.3992C353.629 54.3516 356.128 55.0532 356.852 56.0179L360.557 60.8852C361.368 61.9596 361.434 64.5905 359.899 65.906C355.69 69.3263 350.559 71.6942 344.99 72.6808C328.415 75.553 312.804 65.621 310.13 50.427ZM349.09 38.1052C346.086 32.2293 340.408 28.6556 334.664 29.6203C328.7 30.6288 324.074 35.2111 323.789 42.556L349.09 38.1052Z" fill="#58595B"/>
<path fill-rule="evenodd" clip-rule="evenodd" d="M243.98 73.4922C255.666 73.4922 264.656 68.0548 264.656 56.0619C264.656 45.9764 255.864 42.3807 248.322 39.8374C242.468 37.8642 237.337 35.869 237.337 32.8434C237.337 30.5193 239.245 28.3707 242.972 28.3707C246.897 28.3707 252.246 30.2782 257.596 33.4135L262.003 26.244L262.025 26.2001L262.047 26.1782C262.968 24.6654 262.397 23.2402 260.358 22.0563C255.096 19.2499 248.979 17.6494 243.279 17.6494C232.382 17.6494 223.525 23.7883 223.525 34.7947C223.525 45.4721 232.097 48.9802 239.661 51.2165C245.625 52.9924 250.843 54.6806 250.843 58.0132C250.843 60.6442 248.826 62.7929 244.397 62.7929C239.354 62.7929 233.215 60.5784 227.361 56.3469L223.393 61.8062C222.319 63.2971 222.056 66.2789 223.656 67.3971C230.124 71.5848 237.403 73.4922 243.98 73.4922Z" fill="#58595B"/>
<path d="M54.3073 50.427C51.6324 35.233 61.7617 20.7626 76.9557 18.0877C91.4042 15.5444 105.195 24.5995 108.835 38.5437C108.857 38.6533 108.9 38.741 108.922 38.8506L108.944 38.9164C109.098 39.5084 109.229 40.1223 109.317 40.7362C110.062 44.2223 110.347 45.9982 107.081 46.5901L70.0055 53.1238C72.198 59.7232 79.9813 62.9461 86.4492 61.7183C89.6064 61.1264 92.3909 59.5917 94.5834 57.3992C97.8063 54.3516 100.306 55.0532 101.029 56.0179L104.735 60.8852C105.546 61.9596 105.612 64.5905 104.077 65.906C99.8673 69.3263 94.7368 71.6942 89.1679 72.6808C72.5926 75.553 57.004 65.621 54.3073 50.427ZM93.2679 38.1052C90.2641 32.2293 84.5856 28.6556 78.8412 29.6203C72.8777 30.6288 68.2515 35.2111 67.9665 42.556L93.2679 38.1052Z" fill="#B01116"/>
<path fill-rule="evenodd" clip-rule="evenodd" d="M275.815 60.3155C279.981 75.8822 292.347 73.6678 307.234 69.6775L306.094 65.446C305.37 62.7492 303.463 61.653 302.147 61.7626C296.315 62.0695 291.119 60.1621 289.233 56.8952V29.4452H300.349V22.2757C300.349 20.3025 298.749 18.702 296.776 18.702H289.233V3.22297C289.233 1.44705 287.786 0 286.01 0H275.815C275.464 0 275.092 0 274.741 0C274.741 0.679673 274.741 1.81979 274.741 3.31069C274.96 5.96361 275.179 11.9711 275.333 18.6801H270.816V25.8495C270.816 27.8228 272.417 29.4233 274.39 29.4233H275.574C275.728 36.8997 275.815 43.5429 275.815 45.6477V60.3155Z" fill="#58595B"/>
<path d="M15.763 102.87C16.2892 101.379 15.8945 100.744 14.4913 100.612C13.3512 100.481 12.2111 100.524 11.8823 101.533L8.81279 110.5L5.58983 101.533C5.23903 100.524 4.09892 100.481 2.93689 100.612C1.5337 100.744 0.985575 101.467 1.5337 102.958L6.75184 116.573L6.26949 117.999C5.94062 118.941 4.99783 119.533 3.98928 119.402C2.65186 119.27 2.19145 119.994 2.19145 121.222C2.19145 122.296 2.52033 123.085 3.52888 123.239C6.55452 123.721 8.74701 122.822 9.79941 119.818L15.763 102.87Z" fill="black"/>
<path d="M15.6777 116.706V119.994C15.6777 121.244 16.4232 121.551 17.5414 121.551C18.6157 121.551 19.4269 121.222 19.4269 119.994V118.328C19.4269 117.933 19.5584 117.67 20.0189 117.67H28.3065C28.7669 117.67 28.8985 117.933 28.8985 118.328V119.994C28.8985 121.244 29.7097 121.551 30.784 121.551C31.9022 121.551 32.6477 121.222 32.6477 119.994V116.706C32.6477 115.302 32.1653 114.491 30.7621 114.25V103.945C30.7621 102.191 30.1043 100.788 27.868 100.788H21.5975C19.3392 100.788 18.6376 102.191 18.528 103.945L18.1334 110.282C18.0457 111.773 18.1553 113.548 16.7959 114.557C16.0066 115.105 15.6777 115.763 15.6777 116.706ZM26.3771 114.162H21.2905C21.7729 113.285 21.9702 111.575 22.036 110.347L22.3648 104.954C22.3648 104.559 22.5183 104.296 22.9787 104.296H25.7851C26.2456 104.296 26.3771 104.559 26.3771 104.954V114.162Z" fill="black"/>
<path d="M34.2676 109.229C34.2676 114.404 36.2189 118.021 41.744 118.021C47.2472 118.021 49.2204 114.404 49.2204 109.229C49.2204 104.055 47.2691 100.438 41.744 100.438C36.2408 100.438 34.2676 104.055 34.2676 109.229ZM45.0108 109.229C45.0108 111.663 44.6162 114.667 41.744 114.667C38.9157 114.667 38.521 111.663 38.521 109.229C38.521 106.796 38.8499 103.792 41.744 103.792C44.6819 103.792 45.0108 106.796 45.0108 109.229Z" fill="black"/>
<path d="M56.3252 101.776C57.0488 100.022 58.6493 99.1231 60.3813 98.4873C61.8722 97.9392 63.5385 97.5664 64.7883 96.821C65.9064 96.1632 66.0599 95.1327 65.5337 93.9926C65.0514 92.8745 63.9989 92.721 62.9904 93.1814C61.4995 93.8392 59.899 94.497 58.3861 95.1986C52.9049 97.8734 51.3483 103.398 51.5456 109.033C51.6991 114.295 54.0012 118.044 59.614 118.044C65.161 118.044 67.2219 114.317 67.2219 109.274C67.2219 104.254 65.3583 100.702 60.0744 100.702C59.1316 100.658 57.0707 101.009 56.3252 101.776ZM62.7931 109.231C62.7931 111.511 62.3984 114.58 59.4605 114.624C56.6322 114.624 55.9306 111.467 55.9306 109.231C55.9306 106.95 56.3471 104.166 59.3289 104.166C62.2888 104.188 62.7931 106.95 62.7931 109.231Z" fill="black"/>
<path d="M74.8303 110.545H80.1142V116.443C80.1142 117.693 81.2324 118 82.3067 118C83.4249 118 84.4992 117.671 84.4992 116.443V101.995C84.4992 100.745 83.4249 100.416 82.3067 100.416C81.2324 100.416 80.1142 100.745 80.1142 101.995V107.015H74.8303V101.995C74.8303 100.745 73.7121 100.416 72.6378 100.416C71.5196 100.416 70.4453 100.745 70.4453 101.995V116.443C70.4453 117.693 71.5196 118 72.6378 118C73.7121 118 74.8303 117.671 74.8303 116.443V110.545Z" fill="black"/>
<path d="M97.9181 116.355C98.4004 117.408 98.9705 117.78 100.111 117.78C101.163 117.758 101.843 117.43 101.733 116.289C101.667 115.5 101.601 114.821 101.601 114.097V106.555C101.601 102.016 98.4443 100.328 94.717 100.328C92.5903 100.328 90.7267 100.723 88.8412 101.863C87.8545 102.455 87.8984 103.683 88.5123 104.472C89.1262 105.195 89.8278 105.152 90.5951 104.823C92.1299 104.165 92.8534 103.814 94.6513 103.836C95.9887 103.836 97.2603 104.494 97.2384 106.73C92.963 106.467 87.416 107.059 87.416 112.672C87.416 116.026 90.0689 118.022 93.0288 118.022C95.4405 118.043 96.8218 117.298 97.9181 116.355ZM97.2384 109.953C97.5234 112.365 96.3833 114.514 94.1031 114.514C92.7438 114.514 91.8448 113.79 91.8229 112.694C91.7352 109.822 95.4186 109.822 97.2384 109.953Z" fill="black"/>
<path d="M118.68 103.945C118.68 102.191 118.023 100.788 115.786 100.788H110.853C106.424 100.788 105.219 103.923 105.219 106.05C105.219 107.651 106.402 109.733 108.507 110.26C106.381 111.597 106.183 114.009 104.714 115.829C103.793 116.969 105.065 117.824 106.381 117.911C107.871 117.999 108.595 117.648 109.209 116.421C110.02 114.754 110.744 111.4 113.09 111.4H114.295V116.464C114.295 117.714 115.37 118.021 116.488 118.021C117.562 118.021 118.68 117.692 118.68 116.464V103.945ZM114.295 108.001H111.489C110.568 108.001 109.56 107.607 109.56 106.05C109.56 104.515 110.568 104.165 111.489 104.165H113.747C114.164 104.165 114.295 104.428 114.295 104.822V108.001Z" fill="black"/>
<path d="M133.369 109.229C133.369 114.404 135.32 118.021 140.846 118.021C146.371 118.021 148.322 114.404 148.322 109.229C148.322 104.055 146.371 100.438 140.846 100.438C135.32 100.438 133.369 104.055 133.369 109.229ZM144.09 109.229C144.09 111.663 143.696 114.667 140.824 114.667C137.995 114.667 137.601 111.663 137.601 109.229C137.601 106.796 137.93 103.792 140.824 103.792C143.762 103.792 144.09 106.796 144.09 109.229Z" fill="black"/>
<path d="M155.403 101.776C156.127 100.022 157.727 99.1231 159.459 98.4873C160.95 97.9392 162.617 97.5664 163.866 96.821C164.985 96.1632 165.138 95.1327 164.612 93.9926C164.129 92.8745 163.077 92.721 162.069 93.1814C160.578 93.8392 158.977 94.497 157.464 95.1986C151.983 97.8734 150.426 103.398 150.624 109.033C150.777 114.295 153.079 118.044 158.692 118.044C164.239 118.044 166.3 114.317 166.3 109.274C166.3 104.254 164.436 100.702 159.153 100.702C158.21 100.658 156.171 101.009 155.403 101.776ZM161.871 109.231C161.871 111.511 161.477 114.58 158.539 114.624C155.71 114.624 155.009 111.467 155.009 109.231C155.009 106.95 155.425 104.166 158.407 104.166C161.389 104.188 161.871 106.95 161.871 109.231Z" fill="black"/>
<path d="M181.716 102.87C182.242 101.379 181.848 100.744 180.444 100.612C179.304 100.481 178.164 100.524 177.835 101.533L174.766 110.5L171.543 101.533C171.192 100.524 170.052 100.481 168.89 100.612C167.487 100.744 166.939 101.467 167.487 102.958L172.705 116.573L172.223 117.999C171.894 118.941 170.951 119.533 169.942 119.402C168.605 119.27 168.145 119.994 168.145 121.222C168.145 122.296 168.473 123.085 169.482 123.239C172.508 123.721 174.7 122.822 175.753 119.818L181.716 102.87Z" fill="black"/>
<path d="M184.543 114.491C184.543 116.245 185.201 117.692 187.437 117.692H192.392C196.119 117.692 198.619 115.96 198.619 112.343C198.619 111.159 198.487 109.383 196.404 108.484C197.588 108.001 198.202 106.357 198.202 105.392C198.202 102.038 195.747 100.788 192.568 100.788H187.437C185.179 100.788 184.543 102.191 184.543 103.945V114.491ZM193.839 105.612C193.839 106.664 193.05 107.037 192.282 107.037H188.928V104.778C188.928 104.384 189.081 104.121 189.52 104.121H191.91C192.809 104.143 193.839 104.318 193.839 105.612ZM188.928 110.413H192.348C193.269 110.413 194.278 111.071 194.278 112.343C194.278 113.658 193.269 114.294 192.348 114.294H189.323C189.038 114.294 188.928 113.965 188.928 113.68V110.413Z" fill="black"/>
<path d="M201.907 114.493C201.907 116.247 202.564 117.694 204.801 117.694H209.953C214.382 117.694 215.588 114.274 215.588 112.125C215.588 109.998 214.645 106.556 209.953 106.556H206.27V102.04C206.27 100.79 205.195 100.461 204.077 100.461C203.003 100.461 201.885 100.79 201.885 102.04V114.493H201.907ZM206.27 109.933H209.273C210.194 109.933 211.225 110.59 211.225 112.125C211.225 113.682 210.172 114.339 209.273 114.339H206.818C206.401 114.339 206.27 114.054 206.27 113.682V109.933Z" fill="black"/>
</svg>
