<svg width="68" height="69" viewBox="0 0 68 69" fill="none" xmlns="http://www.w3.org/2000/svg">
<path d="M36.9219 63.0156H30.0781C29.7756 63.0156 29.4855 63.1358 29.2716 63.3497C29.0577 63.5636 28.9375 63.8537 28.9375 64.1562C28.9375 64.4588 29.0577 64.7489 29.2716 64.9628C29.4855 65.1767 29.7756 65.2969 30.0781 65.2969H36.9219C37.2244 65.2969 37.5145 65.1767 37.7284 64.9628C37.9423 64.7489 38.0625 64.4588 38.0625 64.1562C38.0625 63.8537 37.9423 63.5636 37.7284 63.3497C37.5145 63.1358 37.2244 63.0156 36.9219 63.0156Z" fill="white"/>
<path d="M62.0156 21.9531H52.8906V8.26562C52.8882 6.14878 52.0462 4.11932 50.5494 2.62249C49.0526 1.12565 47.0231 0.283665 44.9062 0.28125H22.0938C19.9769 0.283665 17.9474 1.12565 16.4506 2.62249C14.9538 4.11932 14.1118 6.14878 14.1094 8.26562V15.2006C12.2113 15.476 10.4756 16.4249 9.2191 17.874C7.96265 19.3231 7.26929 21.1758 7.26562 23.0938V24.2344H1.5625C1.25999 24.2344 0.969865 24.3545 0.755956 24.5685C0.542048 24.7824 0.421875 25.0725 0.421875 25.375V48.1875C0.423686 49.6995 1.02513 51.1491 2.09428 52.2182C3.16343 53.2874 4.61299 53.8888 6.125 53.8906H14.1094V60.7344C14.1118 62.8512 14.9538 64.8807 16.4506 66.3775C17.9474 67.8744 19.9769 68.7163 22.0938 68.7188H44.9062C47.0231 68.7163 49.0526 67.8744 50.5494 66.3775C52.0462 64.8807 52.8882 62.8512 52.8906 60.7344V51.6094H62.0156C63.5276 51.6076 64.9772 51.0061 66.0463 49.937C67.1155 48.8678 67.7169 47.4183 67.7188 45.9062V27.6562C67.7169 26.1442 67.1155 24.6947 66.0463 23.6255C64.9772 22.5564 63.5276 21.9549 62.0156 21.9531ZM34.6406 42.4844H40.3438V44.7656H34.6406V42.4844ZM34.6406 28.7969H65.4375V31.0781H34.6406V28.7969ZM65.2276 26.5156H34.6406V24.2344H62.0156C62.7208 24.2373 63.4079 24.458 63.9829 24.8664C64.5578 25.2747 64.9926 25.8507 65.2276 26.5156ZM22.0938 2.5625H44.9062C46.2205 2.56416 47.494 3.01885 48.5121 3.84994C49.5301 4.68104 50.2306 5.83771 50.4953 7.125H16.5047C16.7694 5.83771 17.4699 4.68104 18.4879 3.84994C19.506 3.01885 20.7795 2.56416 22.0938 2.5625ZM20.9531 24.2344H16.3906V17.5047C17.6779 17.7694 18.8346 18.4699 19.6657 19.4879C20.4968 20.506 20.9515 21.7795 20.9531 23.0938V24.2344ZM9.54688 23.0938C9.54853 21.7795 10.0032 20.506 10.8343 19.4879C11.6654 18.4699 12.8221 17.7694 14.1094 17.5047V24.2344H9.54688V23.0938ZM2.70312 48.1875V26.5156H7.26562V29.9375C7.26562 30.24 7.3858 30.5301 7.59971 30.744C7.81362 30.958 8.10374 31.0781 8.40625 31.0781C8.70876 31.0781 8.99889 30.958 9.21279 30.744C9.4267 30.5301 9.54688 30.24 9.54688 29.9375V26.5156H20.9531V29.9375C20.9531 30.24 21.0733 30.5301 21.2872 30.744C21.5011 30.958 21.7912 31.0781 22.0938 31.0781C22.3963 31.0781 22.6864 30.958 22.9003 30.744C23.1142 30.5301 23.2344 30.24 23.2344 29.9375V26.5156H27.7969V48.1875C27.7969 49.095 27.4364 49.9654 26.7946 50.6071C26.1529 51.2489 25.2825 51.6094 24.375 51.6094H6.125C5.21746 51.6094 4.3471 51.2489 3.70537 50.6071C3.06364 49.9654 2.70312 49.095 2.70312 48.1875ZM44.9062 66.4375H22.0938C20.7795 66.4358 19.506 65.9811 18.4879 65.1501C17.4699 64.319 16.7694 63.1623 16.5047 61.875H50.4953C50.2306 63.1623 49.5301 64.319 48.5121 65.1501C47.494 65.9811 46.2205 66.4358 44.9062 66.4375ZM50.6094 59.5938H16.3906V53.8906H24.375C25.887 53.8888 27.3366 53.2874 28.4057 52.2182C29.4749 51.1491 30.0763 49.6995 30.0781 48.1875V25.375C30.0781 25.0725 29.958 24.7824 29.744 24.5685C29.5301 24.3545 29.24 24.2344 28.9375 24.2344H23.2344V23.0938C23.2307 21.1758 22.5373 19.3231 21.2809 17.874C20.0244 16.4249 18.2887 15.476 16.3906 15.2006V9.40625H50.6094V21.9531H34.6406V19.6719C34.6406 19.3694 34.5205 19.0792 34.3065 18.8653C34.0926 18.6514 33.8025 18.5312 33.5 18.5312C33.1975 18.5312 32.9074 18.6514 32.6935 18.8653C32.4795 19.0792 32.3594 19.3694 32.3594 19.6719V53.8906C32.3594 54.1931 32.4795 54.4833 32.6935 54.6972C32.9074 54.9111 33.1975 55.0312 33.5 55.0312C33.8025 55.0312 34.0926 54.9111 34.3065 54.6972C34.5205 54.4833 34.6406 54.1931 34.6406 53.8906V51.6094H50.6094V59.5938ZM62.0156 49.3281H34.6406V47.0469H41.4844C41.7869 47.0469 42.077 46.9267 42.2909 46.7128C42.5048 46.4989 42.625 46.2088 42.625 45.9062V41.3438C42.625 41.0412 42.5048 40.7511 42.2909 40.5372C42.077 40.3233 41.7869 40.2031 41.4844 40.2031H34.6406V33.3594H65.4375V45.9062C65.4375 46.8138 65.077 47.6842 64.4353 48.3259C63.7935 48.9676 62.9232 49.3281 62.0156 49.3281Z" fill="white"/>
<path d="M58.5937 37.9218C57.5507 37.9234 56.5399 38.2834 55.7307 38.9415C55.0613 38.3983 54.2517 38.0558 53.3956 37.9538C52.5395 37.8518 51.6721 37.9945 50.8937 38.3652C50.1154 38.736 49.4581 39.3197 48.9978 40.0487C48.5376 40.7777 48.2933 41.6222 48.2933 42.4843C48.2933 43.3464 48.5376 44.1909 48.9978 44.9199C49.4581 45.6489 50.1154 46.2326 50.8937 46.6034C51.6721 46.9741 52.5395 47.1168 53.3956 47.0148C54.2517 46.9128 55.0613 46.5703 55.7307 46.0271C56.2982 46.4876 56.968 46.805 57.6837 46.9527C58.3995 47.1003 59.1402 47.0739 59.8436 46.8756C60.547 46.6773 61.1924 46.313 61.7257 45.8132C62.2589 45.3135 62.6642 44.6929 62.9076 44.0038C63.151 43.3148 63.2253 42.5773 63.1243 41.8535C63.0233 41.1297 62.7499 40.4408 62.3271 39.8447C61.9043 39.2486 61.3445 38.7628 60.6948 38.4282C60.0451 38.0936 59.3245 37.9199 58.5937 37.9218ZM52.8906 44.7655C52.4394 44.7655 51.9983 44.6318 51.6232 44.3811C51.248 44.1304 50.9556 43.7741 50.783 43.3573C50.6103 42.9404 50.5651 42.4818 50.6532 42.0392C50.7412 41.5967 50.9585 41.1902 51.2775 40.8712C51.5965 40.5522 52.003 40.3349 52.4455 40.2469C52.8881 40.1589 53.3467 40.204 53.7636 40.3767C54.1804 40.5494 54.5367 40.8418 54.7874 41.2169C55.038 41.5921 55.1718 42.0331 55.1718 42.4843C55.1718 43.0893 54.9315 43.6696 54.5037 44.0974C54.0759 44.5252 53.4956 44.7655 52.8906 44.7655ZM58.5937 44.7655C58.0485 44.767 57.5214 44.5699 57.1109 44.2112C57.3383 43.6639 57.4554 43.077 57.4554 42.4843C57.4554 41.8916 57.3383 41.3047 57.1109 40.7574C57.5214 40.3987 58.0485 40.2016 58.5937 40.203C59.1987 40.203 59.779 40.4434 60.2068 40.8712C60.6346 41.299 60.875 41.8793 60.875 42.4843C60.875 43.0893 60.6346 43.6696 60.2068 44.0974C59.779 44.5252 59.1987 44.7655 58.5937 44.7655Z" fill="white"/>
<path d="M32.3594 5.98438H34.6406C34.9431 5.98438 35.2333 5.8642 35.4472 5.65029C35.6611 5.43638 35.7812 5.14626 35.7812 4.84375C35.7812 4.54124 35.6611 4.25112 35.4472 4.03721C35.2333 3.8233 34.9431 3.70312 34.6406 3.70312H32.3594C32.0569 3.70312 31.7667 3.8233 31.5528 4.03721C31.3389 4.25112 31.2188 4.54124 31.2188 4.84375C31.2188 5.14626 31.3389 5.43638 31.5528 5.65029C31.7667 5.8642 32.0569 5.98438 32.3594 5.98438Z" fill="white"/>
</svg>
