<svg width="50" height="72" viewBox="0 0 50 72" fill="none" xmlns="http://www.w3.org/2000/svg">
<path d="M31.4712 55.7209C31.0286 55.5229 30.5092 55.7213 30.3112 56.1638C30.269 56.2584 30.2438 56.3596 30.2368 56.4631L29.6772 64.719C29.427 68.4752 32.2645 71.7252 36.0201 71.984C36.1778 71.9946 36.3348 71.9998 36.4913 72C40.0746 71.9943 43.0425 69.2163 43.285 65.6411L43.5484 61.7511C43.5733 61.3841 43.3667 61.0403 43.0308 60.8902L31.4712 55.7209ZM41.533 65.5225C41.3439 68.3126 38.9289 70.4211 36.1388 70.232C33.3487 70.0429 31.2402 67.6279 31.4292 64.8378L31.9036 57.8379L41.7553 62.2424L41.533 65.5225Z" fill="white"/>
<path d="M27.3268 33.7876L30.9576 50.8888C31.0146 51.1574 31.194 51.3839 31.4425 51.5009L43.2112 57.0398C43.6499 57.2463 44.1731 57.0581 44.3796 56.6194C44.4005 56.5751 44.4176 56.529 44.4308 56.4817L48.0952 43.3613C48.0996 43.3451 48.1038 43.3285 48.1074 43.312C49.5114 36.8636 49.6731 31.3669 48.5879 26.9747C47.6644 23.2368 45.8265 20.3553 43.273 18.6419C40.1377 16.5383 36.1484 16.4177 33.334 18.3374C33.0475 18.5078 31.2823 19.6149 29.7012 21.9168C28.1571 24.1646 26.4902 28.0391 27.3168 33.7314C27.3202 33.7501 27.3236 33.769 27.3268 33.7876ZM31.0997 22.9829C32.5593 20.8252 34.224 19.8514 34.2382 19.8429C34.2603 19.8303 34.2821 19.8167 34.3029 19.8022C36.1569 18.5252 39.3471 18.1222 42.2945 20.1001C47.3199 23.4722 48.8149 31.7863 46.397 42.9132L43.019 55.0083L32.5848 50.0974L29.0506 33.4507C28.4655 29.3801 29.1549 25.8583 31.1004 22.9829H31.0997Z" fill="white"/>
<path d="M19.2977 38.8068C19.052 38.6584 18.7492 38.6396 18.487 38.7562L6.91727 43.9041C6.58115 44.0537 6.37394 44.3968 6.39808 44.764L6.65446 48.6547C6.89093 52.2351 9.86131 55.0199 13.4495 55.0253C13.6016 55.0253 13.7542 55.0205 13.9077 55.0107C17.6656 54.7633 20.5115 51.5165 20.264 47.7585C20.264 47.7582 20.264 47.7579 20.264 47.7576L19.72 39.5007C19.7011 39.2144 19.5433 38.9552 19.2977 38.8068ZM17.2675 51.5427C15.4254 53.6465 12.2266 53.8585 10.1228 52.0165C9.11166 51.131 8.49399 49.8799 8.40605 48.5388L8.18992 45.259L18.05 40.8723L18.5113 47.8729C18.6033 49.2132 18.1554 50.5346 17.2675 51.5427Z" fill="white"/>
<path d="M1.8857 26.3655L5.5254 39.4925C5.65491 39.9597 6.13882 40.2335 6.60606 40.104C6.65333 40.0908 6.69942 40.0739 6.74376 40.0531L18.5235 34.5364C18.7721 34.4199 18.9521 34.1938 19.0096 33.9253L22.6724 16.8308C22.6763 16.8121 22.6797 16.7934 22.6825 16.7746C23.5198 11.0838 21.8601 7.20631 20.3204 4.95558C18.7435 2.65057 16.9802 1.5402 16.6942 1.36943C13.8837 -0.555997 9.89413 -0.44259 6.75473 1.65522C4.19803 3.36379 2.35483 6.24184 1.42417 9.97798C0.330775 14.3679 0.482082 19.8652 1.87399 26.3162C1.87692 26.3326 1.88101 26.3491 1.8857 26.3655ZM7.72989 3.11502C10.6813 1.14262 13.8705 1.55176 15.7219 2.83217C15.7414 2.84563 15.7638 2.85968 15.7843 2.87153C15.8008 2.88119 17.4637 3.85854 18.9194 6.01898C20.8595 8.89791 21.5421 12.421 20.9488 16.4909L17.3832 33.1309L6.93984 38.0216L3.58461 25.9199C1.18769 14.7892 2.69798 6.47773 7.72989 3.11502Z" fill="white"/>
</svg>
