<svg width="74" height="72" viewBox="0 0 74 72" fill="none" xmlns="http://www.w3.org/2000/svg">
<path d="M50.0625 12.25H45.3125V8.6875C45.3125 6.48289 44.4368 4.36857 42.8779 2.80967C41.319 1.25078 39.2046 0.375 37 0.375C34.7954 0.375 32.6811 1.25078 31.1222 2.80967C29.5633 4.36857 28.6875 6.48289 28.6875 8.6875V12.25H23.9375C23.6226 12.25 23.3205 12.3751 23.0978 12.5978C22.8751 12.8205 22.75 13.1226 22.75 13.4375V39.5625C22.7528 40.5065 23.1291 41.411 23.7966 42.0785C24.4641 42.7459 25.3686 43.1222 26.3125 43.125H41.75V40.75H26.3125C25.9976 40.75 25.6955 40.6249 25.4728 40.4022C25.2501 40.1795 25.125 39.8774 25.125 39.5625V38.375H41.75V36H25.125V14.625H28.6875V18.1875H31.0625V14.625H42.9375V18.1875H45.3125V14.625H48.875V18.1875H51.25V13.4375C51.25 13.1226 51.1249 12.8205 50.9022 12.5978C50.6795 12.3751 50.3775 12.25 50.0625 12.25ZM42.9375 12.25H31.0625V8.6875C31.0625 7.11278 31.6881 5.60255 32.8016 4.48905C33.9151 3.37556 35.4253 2.75 37 2.75C38.5748 2.75 40.085 3.37556 41.1985 4.48905C42.312 5.60255 42.9375 7.11278 42.9375 8.6875V12.25Z" fill="white"/>
<path d="M66.6875 20.5625H45.3125C44.9976 20.5625 44.6955 20.6876 44.4728 20.9103C44.2501 21.133 44.125 21.4351 44.125 21.75V39.5625C44.1278 40.5065 44.5041 41.411 45.1716 42.0785C45.8391 42.7459 46.7436 43.1222 47.6875 43.125H64.3125C65.2565 43.1222 66.161 42.7459 66.8285 42.0785C67.496 41.411 67.8722 40.5065 67.875 39.5625V21.75C67.875 21.4351 67.7499 21.133 67.5272 20.9103C67.3045 20.6876 67.0025 20.5625 66.6875 20.5625ZM65.5 39.5625C65.5 39.8774 65.3749 40.1795 65.1522 40.4022C64.9295 40.6249 64.6275 40.75 64.3125 40.75H47.6875C47.3726 40.75 47.0705 40.6249 46.8478 40.4022C46.6251 40.1795 46.5 39.8774 46.5 39.5625V38.375H65.5V39.5625ZM65.5 36H46.5V22.9375H65.5V36Z" fill="white"/>
<path d="M56 33.625C57.5742 33.6231 59.0833 32.997 60.1964 31.8839C61.3095 30.7708 61.9356 29.2616 61.9375 27.6875V25.3125H59.5625V27.6875C59.5625 28.6323 59.1872 29.5385 58.5191 30.2066C57.851 30.8747 56.9449 31.25 56 31.25C55.0552 31.25 54.1491 30.8747 53.481 30.2066C52.8129 29.5385 52.4375 28.6323 52.4375 27.6875V25.3125H50.0625V27.6875C50.0644 29.2616 50.6906 30.7708 51.8037 31.8839C52.9168 32.997 54.4259 33.6231 56 33.625Z" fill="white"/>
<path d="M73.0193 50.9031C72.4897 49.7974 71.5633 48.9316 70.4244 48.4779C69.2855 48.0242 68.0176 48.0158 66.8728 48.4545L56.2684 52.3138C56.0448 51.4276 55.5703 50.6247 54.9017 50.0014C54.2332 49.3781 53.399 48.961 52.4993 48.8L38.1745 46.2742C35.0952 45.7324 31.9275 46.0096 28.9892 47.0781L27.1438 47.7562C25.4097 48.3909 23.7713 49.2616 22.275 50.3438L22.0126 49.623C21.9595 49.4763 21.8781 49.3415 21.7729 49.2263C21.6677 49.1111 21.5409 49.0177 21.3996 48.9515C21.2583 48.8854 21.1054 48.8477 20.9496 48.8406C20.7938 48.8336 20.6381 48.8573 20.4914 48.9105L7.09997 53.7792C6.95328 53.8323 6.81848 53.9137 6.70328 54.0189C6.58808 54.1241 6.49473 54.2509 6.42856 54.3922C6.36239 54.5334 6.32471 54.6864 6.31766 54.8422C6.31061 54.998 6.33433 55.1537 6.38747 55.3004L0.806213 57.331L1.61846 59.5623L7.19972 57.5317L12.0435 70.8412L14.2748 70.029L9.03084 55.6056L20.1933 51.5443L26.2864 68.2881L23.4364 69.3271L24.2487 71.5573L28.2125 70.1085C28.3594 70.0555 28.4943 69.974 28.6096 69.8687C28.7249 69.7634 28.8183 69.6365 28.8845 69.4951C28.9506 69.3537 28.9883 69.2006 28.9953 69.0446C29.0022 68.8887 28.9784 68.7329 28.925 68.5861L28.5189 67.4699L31.2502 66.4748C32.9673 65.8472 34.7975 65.5891 36.6212 65.7171L42.2547 66.1078C44.4099 66.2628 46.5734 65.958 48.6019 65.2136L70.3094 57.3132C70.9234 57.0899 71.4847 56.7424 71.9583 56.2923C72.4319 55.8423 72.8076 55.2993 73.0618 54.6975C73.316 54.0956 73.4433 53.4478 73.4358 52.7945C73.4283 52.1413 73.2861 51.4965 73.0181 50.9007L73.0193 50.9031ZM70.8367 53.8516C70.7061 54.1349 70.5205 54.3894 70.2908 54.6004C70.061 54.8114 69.7917 54.9746 69.4984 55.0807L47.7909 62.9823C46.0741 63.6112 44.2435 63.869 42.4198 63.7388L36.7863 63.3481C34.6316 63.1975 32.4694 63.5022 30.4403 64.2423L27.7019 65.2386L23.1241 52.6606C24.5851 51.5203 26.216 50.6163 27.9572 49.9816L29.8002 49.3106C32.3473 48.3842 35.0931 48.1438 37.7624 48.6136L52.0813 51.1394C52.3917 51.19 52.6889 51.3017 52.9557 51.468C53.2226 51.6344 53.4537 51.8521 53.6358 52.1085C53.8178 52.3649 53.9472 52.6549 54.0163 52.9617C54.0853 53.2684 54.0928 53.5859 54.0383 53.8956C53.9837 54.2053 53.8682 54.501 53.6984 54.7657C53.5286 55.0304 53.308 55.2587 53.0493 55.4375C52.7905 55.6162 52.4989 55.7418 52.1913 55.807C51.8836 55.8721 51.5661 55.8755 51.2572 55.817L38.393 53.5488L37.9797 55.8882L50.8439 58.1563C51.9838 58.3581 53.1582 58.1347 54.1444 57.5284C55.1306 56.9222 55.8602 55.9752 56.1948 54.867L67.6803 50.6858C68.2617 50.4578 68.9068 50.453 69.4915 50.6723C70.0762 50.8915 70.5591 51.3193 70.8474 51.8733C70.9871 52.1846 71.0585 52.5223 71.0566 52.8636C71.0548 53.2049 70.9798 53.5418 70.8367 53.8516Z" fill="white"/>
</svg>
